solid OpenSCAD_Model
  facet normal -1 0 0
    outer loop
      vertex -32.5 2 -9
      vertex -32.5 -9 -9
      vertex -32.5 2 9
    endloop
  endfacet
  facet normal -1 0 0
    outer loop
      vertex -32.5 2 9
      vertex -32.5 -9 -9
      vertex -32.5 -9 9
    endloop
  endfacet
  facet normal 0 -2.22045e-16 -1
    outer loop
      vertex -32.5 2 -9
      vertex 1 2 -9
      vertex -32.5 -9 -9
    endloop
  endfacet
  facet normal 0 -2.22045e-16 -1
    outer loop
      vertex -32.5 -9 -9
      vertex 1 2 -9
      vertex 1 -9 -9
    endloop
  endfacet
  facet normal 0 1 -2.22045e-16
    outer loop
      vertex -32.5 2 -9
      vertex -32.5 2 9
      vertex 1 2 -9
    endloop
  endfacet
  facet normal 0 1 -2.22045e-16
    outer loop
      vertex 20.437 2 7.40824
      vertex -32.5 2 9
      vertex 32.5 2 9
    endloop
  endfacet
  facet normal 0 1 -2.22045e-16
    outer loop
      vertex 21 2 -9
      vertex 32.5 2 9
      vertex 32.5 2 -9
    endloop
  endfacet
  facet normal 0 1 -2.22045e-16
    outer loop
      vertex 21 2 -3
      vertex 32.5 2 9
      vertex 21 2 -9
    endloop
  endfacet
  facet normal 0 1 -2.22045e-16
    outer loop
      vertex 22.0412 2 0.900118
      vertex 32.5 2 9
      vertex 21 2 -3
    endloop
  endfacet
  facet normal 0 1 -2.22045e-16
    outer loop
      vertex 1 2 -9
      vertex -32.5 2 9
      vertex 1 2 -3
    endloop
  endfacet
  facet normal 0 1 -2.22045e-16
    outer loop
      vertex 1 2 -3
      vertex -32.5 2 9
      vertex 16.5248 2 4.7078
    endloop
  endfacet
  facet normal 0 1 -2.22045e-16
    outer loop
      vertex 1 2 -3
      vertex 16.5248 2 4.7078
      vertex 16.5248 2 2.9922
    endloop
  endfacet
  facet normal 0 1 -2.22045e-16
    outer loop
      vertex 17.2588 2 1.59364
      vertex 1 2 -3
      vertex 16.5248 2 2.9922
    endloop
  endfacet
  facet normal 0 1 -2.22045e-16
    outer loop
      vertex 23.2114 2 5.38359
      vertex 32.5 2 9
      vertex 23.5894 2 3.85
    endloop
  endfacet
  facet normal 0 1 -2.22045e-16
    outer loop
      vertex 18.6219 2 0.575871
      vertex 18.734 2 0.498551
      vertex 21 2 -3
    endloop
  endfacet
  facet normal 0 1 -2.22045e-16
    outer loop
      vertex 18.734 2 0.498551
      vertex 20.3019 2 0.308166
      vertex 21 2 -3
    endloop
  endfacet
  facet normal 0 1 -2.22045e-16
    outer loop
      vertex 20.3019 2 0.308166
      vertex 20.437 2 0.29176
      vertex 21 2 -3
    endloop
  endfacet
  facet normal 0 1 -2.22045e-16
    outer loop
      vertex 23.5568 2 3.71784
      vertex 32.5 2 9
      vertex 23.1788 2 2.18426
    endloop
  endfacet
  facet normal 0 1 -2.22045e-16
    outer loop
      vertex 20.437 2 0.29176
      vertex 21.9139 2 0.851852
      vertex 21 2 -3
    endloop
  endfacet
  facet normal 0 1 -2.22045e-16
    outer loop
      vertex 21.9139 2 0.851852
      vertex 22.0412 2 0.900118
      vertex 21 2 -3
    endloop
  endfacet
  facet normal 0 1 -2.22045e-16
    outer loop
      vertex 23.1788 2 2.18426
      vertex 32.5 2 9
      vertex 23.0885 2 2.08238
    endloop
  endfacet
  facet normal 0 1 -2.22045e-16
    outer loop
      vertex 23.5894 2 3.85
      vertex 32.5 2 9
      vertex 23.5568 2 3.71784
    endloop
  endfacet
  facet normal 0 1 -2.22045e-16
    outer loop
      vertex 23.0885 2 2.08238
      vertex 32.5 2 9
      vertex 22.0412 2 0.900118
    endloop
  endfacet
  facet normal 0 1 -2.22045e-16
    outer loop
      vertex 23.1788 2 5.51574
      vertex 32.5 2 9
      vertex 23.2114 2 5.38359
    endloop
  endfacet
  facet normal 0 1 -2.22045e-16
    outer loop
      vertex 22.1314 2 6.698
      vertex 32.5 2 9
      vertex 23.1788 2 5.51574
    endloop
  endfacet
  facet normal 0 1 -2.22045e-16
    outer loop
      vertex 18.8691 2 7.21786
      vertex -32.5 2 9
      vertex 20.437 2 7.40824
    endloop
  endfacet
  facet normal 0 1 -2.22045e-16
    outer loop
      vertex 22.1314 2 6.698
      vertex 22.0412 2 6.79988
      vertex 32.5 2 9
    endloop
  endfacet
  facet normal 0 1 -2.22045e-16
    outer loop
      vertex 17.4341 2 6.3042
      vertex -32.5 2 9
      vertex 18.734 2 7.20145
    endloop
  endfacet
  facet normal 0 1 -2.22045e-16
    outer loop
      vertex 22.0412 2 6.79988
      vertex 20.5643 2 7.35997
      vertex 32.5 2 9
    endloop
  endfacet
  facet normal 0 1 -2.22045e-16
    outer loop
      vertex 20.5643 2 7.35997
      vertex 20.437 2 7.40824
      vertex 32.5 2 9
    endloop
  endfacet
  facet normal 0 1 -2.22045e-16
    outer loop
      vertex 18.734 2 7.20145
      vertex -32.5 2 9
      vertex 18.8691 2 7.21786
    endloop
  endfacet
  facet normal 0 1 -2.22045e-16
    outer loop
      vertex 17.3221 2 6.22688
      vertex -32.5 2 9
      vertex 17.4341 2 6.3042
    endloop
  endfacet
  facet normal 0 1 -2.22045e-16
    outer loop
      vertex 16.588 2 4.82832
      vertex -32.5 2 9
      vertex 17.3221 2 6.22688
    endloop
  endfacet
  facet normal 0 1 -2.22045e-16
    outer loop
      vertex 16.5248 2 4.7078
      vertex -32.5 2 9
      vertex 16.588 2 4.82832
    endloop
  endfacet
  facet normal 0 1 -2.22045e-16
    outer loop
      vertex 1 2 -3
      vertex 17.2588 2 1.59364
      vertex 17.3221 2 1.47312
    endloop
  endfacet
  facet normal 0 1 -2.22045e-16
    outer loop
      vertex 1 2 -3
      vertex 17.3221 2 1.47312
      vertex 18.6219 2 0.575871
    endloop
  endfacet
  facet normal 0 1 -2.22045e-16
    outer loop
      vertex 1 2 -3
      vertex 18.6219 2 0.575871
      vertex 21 2 -3
    endloop
  endfacet
  facet normal 0 2.22045e-16 1
    outer loop
      vertex -29.285 -7.6 9
      vertex -32.5 2 9
      vertex -32.5 -9 9
    endloop
  endfacet
  facet normal 0 2.22045e-16 1
    outer loop
      vertex -29.285 1.9984e-15 9
      vertex 29.285 1.9984e-15 9
      vertex 32.5 2 9
    endloop
  endfacet
  facet normal 0 2.22045e-16 1
    outer loop
      vertex -29.285 1.9984e-15 9
      vertex -32.5 2 9
      vertex -29.285 -7.6 9
    endloop
  endfacet
  facet normal 0 2.22045e-16 1
    outer loop
      vertex 32.5 2 9
      vertex -32.5 2 9
      vertex -29.285 1.9984e-15 9
    endloop
  endfacet
  facet normal 0 2.22045e-16 1
    outer loop
      vertex 32.5 -9 9
      vertex 32.5 2 9
      vertex 29.285 1.9984e-15 9
    endloop
  endfacet
  facet normal 0 2.22045e-16 1
    outer loop
      vertex 32.5 -9 9
      vertex 29.285 -7.6 9
      vertex -32.5 -9 9
    endloop
  endfacet
  facet normal 0 2.22045e-16 1
    outer loop
      vertex 32.5 -9 9
      vertex 29.285 1.9984e-15 9
      vertex 29.285 -7.6 9
    endloop
  endfacet
  facet normal 0 2.22045e-16 1
    outer loop
      vertex 29.285 -7.6 9
      vertex -29.285 -7.6 9
      vertex -32.5 -9 9
    endloop
  endfacet
  facet normal 0 -1 2.22045e-16
    outer loop
      vertex -32.5 -9 9
      vertex -32.5 -9 -9
      vertex 1 -9 -9
    endloop
  endfacet
  facet normal 0 -1 2.22045e-16
    outer loop
      vertex 21 -9 -3
      vertex -32.5 -9 9
      vertex 1 -9 -3
    endloop
  endfacet
  facet normal 0 -1 2.22045e-16
    outer loop
      vertex 1 -9 -3
      vertex -32.5 -9 9
      vertex 1 -9 -9
    endloop
  endfacet
  facet normal 0 -1 2.22045e-16
    outer loop
      vertex 10.5313 -9 1.34253
      vertex -32.5 -9 9
      vertex 21 -9 -3
    endloop
  endfacet
  facet normal 0 -1 2.22045e-16
    outer loop
      vertex 32.5 -9 -9
      vertex 21 -9 -3
      vertex 21 -9 -9
    endloop
  endfacet
  facet normal 0 -1 2.22045e-16
    outer loop
      vertex 32.5 -9 9
      vertex 21 -9 -3
      vertex 32.5 -9 -9
    endloop
  endfacet
  facet normal 0 -1 2.22045e-16
    outer loop
      vertex 10.2501 -9 1.4023
      vertex 9.9875 -9 1.51922
      vertex -32.5 -9 9
    endloop
  endfacet
  facet normal 0 -1 2.22045e-16
    outer loop
      vertex 9.3 -9 4.99
      vertex -32.5 -9 9
      vertex 9.3 -9 2.71
    endloop
  endfacet
  facet normal 0 -1 2.22045e-16
    outer loop
      vertex 9.33005 -9 5.27588
      vertex -32.5 -9 9
      vertex 9.3 -9 4.99
    endloop
  endfacet
  facet normal 0 -1 2.22045e-16
    outer loop
      vertex 9.41887 -9 5.54926
      vertex -32.5 -9 9
      vertex 9.33005 -9 5.27588
    endloop
  endfacet
  facet normal 0 -1 2.22045e-16
    outer loop
      vertex 9.5626 -9 5.79821
      vertex -32.5 -9 9
      vertex 9.41887 -9 5.54926
    endloop
  endfacet
  facet normal 0 -1 2.22045e-16
    outer loop
      vertex 9.75494 -9 6.01182
      vertex -32.5 -9 9
      vertex 9.5626 -9 5.79821
    endloop
  endfacet
  facet normal 0 -1 2.22045e-16
    outer loop
      vertex 9.9875 -9 6.18079
      vertex -32.5 -9 9
      vertex 9.75494 -9 6.01182
    endloop
  endfacet
  facet normal 0 -1 2.22045e-16
    outer loop
      vertex 10.2501 -9 6.2977
      vertex -32.5 -9 9
      vertex 9.9875 -9 6.18079
    endloop
  endfacet
  facet normal 0 -1 2.22045e-16
    outer loop
      vertex 10.5313 -9 6.35747
      vertex -32.5 -9 9
      vertex 10.2501 -9 6.2977
    endloop
  endfacet
  facet normal 0 -1 2.22045e-16
    outer loop
      vertex 19.6091 -9 7.61675
      vertex -32.5 -9 9
      vertex 10.5313 -9 6.35747
    endloop
  endfacet
  facet normal 0 -1 2.22045e-16
    outer loop
      vertex 21.405 -9 7.31958
      vertex 22.5393 -9 6.66466
      vertex 32.5 -9 9
    endloop
  endfacet
  facet normal 0 -1 2.22045e-16
    outer loop
      vertex 18.3634 -9 7.21199
      vertex 10.8187 -9 6.35747
      vertex 11.0999 -9 6.2977
    endloop
  endfacet
  facet normal 0 -1 2.22045e-16
    outer loop
      vertex 11.9311 -9 5.54926
      vertex 12.02 -9 5.27588
      vertex 17.1378 -9 6.25362
    endloop
  endfacet
  facet normal 0 -1 2.22045e-16
    outer loop
      vertex 12.05 -9 4.99
      vertex 12.05 -9 2.71
      vertex 16.3003 -9 4.63747
    endloop
  endfacet
  facet normal 0 -1 2.22045e-16
    outer loop
      vertex 16.4081 -9 4.87964
      vertex 16.9408 -9 6.07624
      vertex 12.05 -9 4.99
    endloop
  endfacet
  facet normal 0 -1 2.22045e-16
    outer loop
      vertex 16.9408 -9 6.07624
      vertex 12.02 -9 5.27588
      vertex 12.05 -9 4.99
    endloop
  endfacet
  facet normal 0 -1 2.22045e-16
    outer loop
      vertex 18.1113 -9 0.569929
      vertex 12.05 -9 2.71
      vertex 21 -9 -3
    endloop
  endfacet
  facet normal 0 -1 2.22045e-16
    outer loop
      vertex 12.05 -9 2.71
      vertex 12.02 -9 2.42412
      vertex 21 -9 -3
    endloop
  endfacet
  facet normal 0 -1 2.22045e-16
    outer loop
      vertex 12.02 -9 2.42412
      vertex 11.9311 -9 2.15074
      vertex 21 -9 -3
    endloop
  endfacet
  facet normal 0 -1 2.22045e-16
    outer loop
      vertex 11.9311 -9 2.15074
      vertex 11.7874 -9 1.9018
      vertex 21 -9 -3
    endloop
  endfacet
  facet normal 0 -1 2.22045e-16
    outer loop
      vertex 11.7874 -9 1.9018
      vertex 11.5951 -9 1.68818
      vertex 21 -9 -3
    endloop
  endfacet
  facet normal 0 -1 2.22045e-16
    outer loop
      vertex 11.3625 -9 1.51922
      vertex 11.0999 -9 1.4023
      vertex 21 -9 -3
    endloop
  endfacet
  facet normal 0 -1 2.22045e-16
    outer loop
      vertex 11.0999 -9 1.4023
      vertex 10.8187 -9 1.34253
      vertex 21 -9 -3
    endloop
  endfacet
  facet normal 0 -1 2.22045e-16
    outer loop
      vertex 10.8187 -9 1.34253
      vertex 10.5313 -9 1.34253
      vertex 21 -9 -3
    endloop
  endfacet
  facet normal 0 -1 2.22045e-16
    outer loop
      vertex 10.2501 -9 1.4023
      vertex -32.5 -9 9
      vertex 10.5313 -9 1.34253
    endloop
  endfacet
  facet normal 0 -1 2.22045e-16
    outer loop
      vertex 9.9875 -9 1.51922
      vertex 9.75494 -9 1.68818
      vertex -32.5 -9 9
    endloop
  endfacet
  facet normal 0 -1 2.22045e-16
    outer loop
      vertex 9.75494 -9 1.68818
      vertex 9.5626 -9 1.9018
      vertex -32.5 -9 9
    endloop
  endfacet
  facet normal 0 -1 2.22045e-16
    outer loop
      vertex 16.3003 -9 3.06253
      vertex 16.3003 -9 4.63747
      vertex 12.05 -9 2.71
    endloop
  endfacet
  facet normal 0 -1 2.22045e-16
    outer loop
      vertex 9.41887 -9 2.15074
      vertex -32.5 -9 9
      vertex 9.5626 -9 1.9018
    endloop
  endfacet
  facet normal 0 -1 2.22045e-16
    outer loop
      vertex 9.33005 -9 2.42412
      vertex -32.5 -9 9
      vertex 9.41887 -9 2.15074
    endloop
  endfacet
  facet normal 0 -1 2.22045e-16
    outer loop
      vertex 9.3 -9 2.71
      vertex -32.5 -9 9
      vertex 9.33005 -9 2.42412
    endloop
  endfacet
  facet normal 0 -1 2.22045e-16
    outer loop
      vertex 11.5951 -9 1.68818
      vertex 11.3625 -9 1.51922
      vertex 21 -9 -3
    endloop
  endfacet
  facet normal 0 -1 2.22045e-16
    outer loop
      vertex 16.4081 -9 4.87964
      vertex 12.05 -9 4.99
      vertex 16.3003 -9 4.63747
    endloop
  endfacet
  facet normal 0 -1 2.22045e-16
    outer loop
      vertex 22.5393 -9 6.66466
      vertex 22.6951 -9 6.4502
      vertex 32.5 -9 9
    endloop
  endfacet
  facet normal 0 -1 2.22045e-16
    outer loop
      vertex 21.1754 -9 7.45213
      vertex 21.405 -9 7.31958
      vertex 32.5 -9 9
    endloop
  endfacet
  facet normal 0 -1 2.22045e-16
    outer loop
      vertex 18.3634 -9 7.21199
      vertex 10.5313 -9 6.35747
      vertex 10.8187 -9 6.35747
    endloop
  endfacet
  facet normal 0 -1 2.22045e-16
    outer loop
      vertex 18.3634 -9 7.21199
      vertex 11.0999 -9 6.2977
      vertex 18.1113 -9 7.13007
    endloop
  endfacet
  facet normal 0 -1 2.22045e-16
    outer loop
      vertex 32.5 -9 9
      vertex -32.5 -9 9
      vertex 19.6091 -9 7.61675
    endloop
  endfacet
  facet normal 0 -1 2.22045e-16
    outer loop
      vertex 32.5 -9 9
      vertex 19.6091 -9 7.61675
      vertex 19.8727 -9 7.58904
    endloop
  endfacet
  facet normal 0 -1 2.22045e-16
    outer loop
      vertex 18.3634 -9 7.21199
      vertex 19.6091 -9 7.61675
      vertex 10.5313 -9 6.35747
    endloop
  endfacet
  facet normal 0 -1 2.22045e-16
    outer loop
      vertex 16.9408 -9 6.07624
      vertex 17.1378 -9 6.25362
      vertex 12.02 -9 5.27588
    endloop
  endfacet
  facet normal 0 -1 2.22045e-16
    outer loop
      vertex 23.3092 -9 2.09502
      vertex 22.5393 -9 1.03534
      vertex 21 -9 -3
    endloop
  endfacet
  facet normal 0 -1 2.22045e-16
    outer loop
      vertex 19.357 -9 0.165165
      vertex 18.1113 -9 0.569929
      vertex 21 -9 -3
    endloop
  endfacet
  facet normal 0 -1 2.22045e-16
    outer loop
      vertex 32.5 -9 9
      vertex 23.4651 -9 5.39052
      vertex 23.5202 -9 5.13122
    endloop
  endfacet
  facet normal 0 -1 2.22045e-16
    outer loop
      vertex 32.5 -9 9
      vertex 23.5202 -9 5.13122
      vertex 23.7925 -9 3.85
    endloop
  endfacet
  facet normal 0 -1 2.22045e-16
    outer loop
      vertex 22.3098 -9 0.902795
      vertex 21.1754 -9 0.247874
      vertex 21 -9 -3
    endloop
  endfacet
  facet normal 0 -1 2.22045e-16
    outer loop
      vertex 32.5 -9 9
      vertex 23.7925 -9 3.85
      vertex 23.7374 -9 3.59071
    endloop
  endfacet
  facet normal 0 -1 2.22045e-16
    outer loop
      vertex 32.5 -9 9
      vertex 23.4651 -9 2.30949
      vertex 21 -9 -3
    endloop
  endfacet
  facet normal 0 -1 2.22045e-16
    outer loop
      vertex 32.5 -9 9
      vertex 23.7374 -9 3.59071
      vertex 23.4651 -9 2.30949
    endloop
  endfacet
  facet normal 0 -1 2.22045e-16
    outer loop
      vertex 23.4651 -9 2.30949
      vertex 23.3092 -9 2.09502
      vertex 21 -9 -3
    endloop
  endfacet
  facet normal 0 -1 2.22045e-16
    outer loop
      vertex 22.5393 -9 1.03534
      vertex 22.3098 -9 0.902795
      vertex 21 -9 -3
    endloop
  endfacet
  facet normal 0 -1 2.22045e-16
    outer loop
      vertex 21.1754 -9 0.247874
      vertex 20.9118 -9 0.220165
      vertex 21 -9 -3
    endloop
  endfacet
  facet normal 0 -1 2.22045e-16
    outer loop
      vertex 20.9118 -9 0.220165
      vertex 19.6091 -9 0.083248
      vertex 21 -9 -3
    endloop
  endfacet
  facet normal 0 -1 2.22045e-16
    outer loop
      vertex 19.6091 -9 0.083248
      vertex 19.357 -9 0.165165
      vertex 21 -9 -3
    endloop
  endfacet
  facet normal 0 -1 2.22045e-16
    outer loop
      vertex 17.9143 -9 0.747307
      vertex 12.05 -9 2.71
      vertex 18.1113 -9 0.569929
    endloop
  endfacet
  facet normal 0 -1 2.22045e-16
    outer loop
      vertex 16.9408 -9 1.62376
      vertex 12.05 -9 2.71
      vertex 17.9143 -9 0.747307
    endloop
  endfacet
  facet normal 0 -1 2.22045e-16
    outer loop
      vertex 16.833 -9 1.86593
      vertex 12.05 -9 2.71
      vertex 16.9408 -9 1.62376
    endloop
  endfacet
  facet normal 0 -1 2.22045e-16
    outer loop
      vertex 16.3003 -9 3.06253
      vertex 12.05 -9 2.71
      vertex 16.833 -9 1.86593
    endloop
  endfacet
  facet normal 0 -1 2.22045e-16
    outer loop
      vertex 19.8727 -9 7.58904
      vertex 21.1754 -9 7.45213
      vertex 32.5 -9 9
    endloop
  endfacet
  facet normal 0 -1 2.22045e-16
    outer loop
      vertex 11.0999 -9 6.2977
      vertex 11.3625 -9 6.18079
      vertex 18.1113 -9 7.13007
    endloop
  endfacet
  facet normal 0 -1 2.22045e-16
    outer loop
      vertex 22.6951 -9 6.4502
      vertex 23.4651 -9 5.39052
      vertex 32.5 -9 9
    endloop
  endfacet
  facet normal 0 -1 2.22045e-16
    outer loop
      vertex 17.1378 -9 6.25362
      vertex 11.7874 -9 5.79821
      vertex 11.9311 -9 5.54926
    endloop
  endfacet
  facet normal 0 -1 2.22045e-16
    outer loop
      vertex 17.1378 -9 6.25362
      vertex 11.5951 -9 6.01182
      vertex 11.7874 -9 5.79821
    endloop
  endfacet
  facet normal 0 -1 2.22045e-16
    outer loop
      vertex 17.1378 -9 6.25362
      vertex 11.3625 -9 6.18079
      vertex 11.5951 -9 6.01182
    endloop
  endfacet
  facet normal 0 -1 2.22045e-16
    outer loop
      vertex 17.1378 -9 6.25362
      vertex 18.1113 -9 7.13007
      vertex 11.3625 -9 6.18079
    endloop
  endfacet
  facet normal 1 0 0
    outer loop
      vertex 1 -7.6 -3.48083
      vertex 1 -9 -9
      vertex 1 -7.72899e-16 -3.48083
    endloop
  endfacet
  facet normal 1 0 0
    outer loop
      vertex 1 2 -3
      vertex 1 -6.66134e-16 -3
      vertex 1 -7.72899e-16 -3.48083
    endloop
  endfacet
  facet normal 1 0 0
    outer loop
      vertex 1 -9 -9
      vertex 1 2 -3
      vertex 1 -7.72899e-16 -3.48083
    endloop
  endfacet
  facet normal 1 0 0
    outer loop
      vertex 1 -7.6 -3
      vertex 1 -9 -3
      vertex 1 -7.6 -3.48083
    endloop
  endfacet
  facet normal 1 0 0
    outer loop
      vertex 1 -9 -3
      vertex 1 -9 -9
      vertex 1 -7.6 -3.48083
    endloop
  endfacet
  facet normal 1 0 0
    outer loop
      vertex 1 -9 -9
      vertex 1 2 -9
      vertex 1 2 -3
    endloop
  endfacet
  facet normal 0 -2.22045e-16 -1
    outer loop
      vertex 21 -6.66134e-16 -3
      vertex 1 -6.66134e-16 -3
      vertex 21 2 -3
    endloop
  endfacet
  facet normal 0 -2.22045e-16 -1
    outer loop
      vertex 21 2 -3
      vertex 1 -6.66134e-16 -3
      vertex 1 2 -3
    endloop
  endfacet
  facet normal -1 0 0
    outer loop
      vertex 21 -9 -3
      vertex 21 -7.6 -3
      vertex 21 -9 -9
    endloop
  endfacet
  facet normal -1 0 0
    outer loop
      vertex 21 -9 -9
      vertex 21 -7.6 -3
      vertex 21 -7.6 -3.48083
    endloop
  endfacet
  facet normal -1 0 0
    outer loop
      vertex 21 -9 -9
      vertex 21 -7.6 -3.48083
      vertex 21 -7.72899e-16 -3.48083
    endloop
  endfacet
  facet normal -1 0 0
    outer loop
      vertex 21 -7.72899e-16 -3.48083
      vertex 21 -6.66134e-16 -3
      vertex 21 2 -3
    endloop
  endfacet
  facet normal -1 0 0
    outer loop
      vertex 21 -7.72899e-16 -3.48083
      vertex 21 2 -3
      vertex 21 -9 -9
    endloop
  endfacet
  facet normal -1 0 0
    outer loop
      vertex 21 -9 -9
      vertex 21 2 -3
      vertex 21 2 -9
    endloop
  endfacet
  facet normal 0 -2.22045e-16 -1
    outer loop
      vertex 21 2 -9
      vertex 32.5 2 -9
      vertex 21 -9 -9
    endloop
  endfacet
  facet normal 0 -2.22045e-16 -1
    outer loop
      vertex 21 -9 -9
      vertex 32.5 2 -9
      vertex 32.5 -9 -9
    endloop
  endfacet
  facet normal 1 0 0
    outer loop
      vertex 32.5 -9 -9
      vertex 32.5 2 -9
      vertex 32.5 2 9
    endloop
  endfacet
  facet normal 1 0 0
    outer loop
      vertex 32.5 -9 9
      vertex 32.5 -9 -9
      vertex 32.5 2 9
    endloop
  endfacet
  facet normal 0.883988 0.0575541 -0.463953
    outer loop
      vertex 16.588 2 4.82832
      vertex 16.7214 1.07344e-15 4.83433
      vertex 16.6401 1.03903e-15 4.67938
    endloop
  endfacet
  facet normal 0.883988 0.0575541 -0.463953
    outer loop
      vertex 16.5248 2 4.7078
      vertex 16.588 2 4.82832
      vertex 16.6401 1.03903e-15 4.67938
    endloop
  endfacet
  facet normal 0.998342 0.0575541 -1.27796e-17
    outer loop
      vertex 16.5248 2 4.7078
      vertex 16.6401 1.03903e-15 4.67938
      vertex 16.6401 6.70713e-16 3.02062
    endloop
  endfacet
  facet normal 0.998342 0.0575541 -1.27796e-17
    outer loop
      vertex 16.5248 2 2.9922
      vertex 16.5248 2 4.7078
      vertex 16.6401 6.70713e-16 3.02062
    endloop
  endfacet
  facet normal 0.883988 0.0575541 -0.463953
    outer loop
      vertex 17.3221 2 6.22688
      vertex 17.4109 1.36516e-15 6.14813
      vertex 16.7214 1.07344e-15 4.83433
    endloop
  endfacet
  facet normal 0.883988 0.0575541 -0.463953
    outer loop
      vertex 16.588 2 4.82832
      vertex 17.3221 2 6.22688
      vertex 16.7214 1.07344e-15 4.83433
    endloop
  endfacet
  facet normal 0.567123 0.0575541 -0.82162
    outer loop
      vertex 17.555 1.38723e-15 6.24755
      vertex 17.4109 1.36516e-15 6.14813
      vertex 17.4341 2 6.3042
    endloop
  endfacet
  facet normal 0.567123 0.0575541 -0.82162
    outer loop
      vertex 17.4341 2 6.3042
      vertex 17.4109 1.36516e-15 6.14813
      vertex 17.3221 2 6.22688
    endloop
  endfacet
  facet normal 0.567123 0.0575541 -0.82162
    outer loop
      vertex 18.7761 1.57439e-15 7.09042
      vertex 17.555 1.38723e-15 6.24755
      vertex 18.734 2 7.20145
    endloop
  endfacet
  facet normal 0.567123 0.0575541 -0.82162
    outer loop
      vertex 18.734 2 7.20145
      vertex 17.555 1.38723e-15 6.24755
      vertex 17.4341 2 6.3042
    endloop
  endfacet
  facet normal 0.120337 0.0575541 -0.991063
    outer loop
      vertex 18.9498 1.57907e-15 7.11151
      vertex 18.7761 1.57439e-15 7.09042
      vertex 18.8691 2 7.21786
    endloop
  endfacet
  facet normal 0.120337 0.0575541 -0.991063
    outer loop
      vertex 18.8691 2 7.21786
      vertex 18.7761 1.57439e-15 7.09042
      vertex 18.734 2 7.20145
    endloop
  endfacet
  facet normal 0.120337 0.0575541 -0.991063
    outer loop
      vertex 20.4227 1.61878e-15 7.29036
      vertex 18.9498 1.57907e-15 7.11151
      vertex 20.437 2 7.40824
    endloop
  endfacet
  facet normal 0.120337 0.0575541 -0.991063
    outer loop
      vertex 20.437 2 7.40824
      vertex 18.9498 1.57907e-15 7.11151
      vertex 18.8691 2 7.21786
    endloop
  endfacet
  facet normal -0.354017 0.0575541 -0.933466
    outer loop
      vertex 20.5643 2 7.35997
      vertex 20.5864 1.60501e-15 7.2283
      vertex 20.437 2 7.40824
    endloop
  endfacet
  facet normal -0.354017 0.0575541 -0.933466
    outer loop
      vertex 20.437 2 7.40824
      vertex 20.5864 1.60501e-15 7.2283
      vertex 20.4227 1.61878e-15 7.29036
    endloop
  endfacet
  facet normal -0.354017 0.0575541 -0.933466
    outer loop
      vertex 21.9737 1.48818e-15 6.70215
      vertex 20.5864 1.60501e-15 7.2283
      vertex 22.0412 2 6.79988
    endloop
  endfacet
  facet normal -0.354017 0.0575541 -0.933466
    outer loop
      vertex 22.0412 2 6.79988
      vertex 20.5864 1.60501e-15 7.2283
      vertex 20.5643 2 7.35997
    endloop
  endfacet
  facet normal -0.74727 0.0575541 -0.662023
    outer loop
      vertex 22.1314 2 6.698
      vertex 22.0897 1.45909e-15 6.57116
      vertex 22.0412 2 6.79988
    endloop
  endfacet
  facet normal -0.74727 0.0575541 -0.662023
    outer loop
      vertex 22.0412 2 6.79988
      vertex 22.0897 1.45909e-15 6.57116
      vertex 21.9737 1.48818e-15 6.70215
    endloop
  endfacet
  facet normal -0.74727 0.0575541 -0.662024
    outer loop
      vertex 23.1788 2 5.51574
      vertex 23.0737 1.21249e-15 5.46056
      vertex 22.1314 2 6.698
    endloop
  endfacet
  facet normal -0.74727 0.0575541 -0.662024
    outer loop
      vertex 22.1314 2 6.698
      vertex 23.0737 1.21249e-15 5.46056
      vertex 22.0897 1.45909e-15 6.57116
    endloop
  endfacet
  facet normal -0.969332 0.0575541 -0.238919
    outer loop
      vertex 23.2114 2 5.38359
      vertex 23.1155 1.17476e-15 5.29064
      vertex 23.1788 2 5.51574
    endloop
  endfacet
  facet normal -0.969332 0.0575541 -0.238919
    outer loop
      vertex 23.1788 2 5.51574
      vertex 23.1155 1.17476e-15 5.29064
      vertex 23.0737 1.21249e-15 5.46056
    endloop
  endfacet
  facet normal -0.969332 0.0575541 -0.238919
    outer loop
      vertex 23.5894 2 3.85
      vertex 23.4706 8.54872e-16 3.85
      vertex 23.2114 2 5.38359
    endloop
  endfacet
  facet normal -0.969332 0.0575541 -0.238919
    outer loop
      vertex 23.2114 2 5.38359
      vertex 23.4706 8.54872e-16 3.85
      vertex 23.1155 1.17476e-15 5.29064
    endloop
  endfacet
  facet normal -0.969332 0.0575541 0.238919
    outer loop
      vertex 23.5894 2 3.85
      vertex 23.5568 2 3.71784
      vertex 23.4706 8.54872e-16 3.85
    endloop
  endfacet
  facet normal -0.969332 0.0575541 0.238919
    outer loop
      vertex 23.4706 8.54872e-16 3.85
      vertex 23.5568 2 3.71784
      vertex 23.4287 8.17143e-16 3.68009
    endloop
  endfacet
  facet normal -0.969332 0.0575541 0.238919
    outer loop
      vertex 23.5568 2 3.71784
      vertex 23.1788 2 2.18426
      vertex 23.4287 8.17143e-16 3.68009
    endloop
  endfacet
  facet normal -0.969332 0.0575541 0.238919
    outer loop
      vertex 23.4287 8.17143e-16 3.68009
      vertex 23.1788 2 2.18426
      vertex 23.0737 4.97256e-16 2.23944
    endloop
  endfacet
  facet normal -0.74727 0.0575541 0.662023
    outer loop
      vertex 23.1788 2 2.18426
      vertex 23.0885 2 2.08238
      vertex 23.0737 4.97256e-16 2.23944
    endloop
  endfacet
  facet normal -0.74727 0.0575541 0.662023
    outer loop
      vertex 23.0737 4.97256e-16 2.23944
      vertex 23.0885 2 2.08238
      vertex 22.9576 4.68171e-16 2.10845
    endloop
  endfacet
  facet normal -0.74727 0.0575541 0.662024
    outer loop
      vertex 23.0885 2 2.08238
      vertex 22.0412 2 0.900118
      vertex 22.9576 4.68171e-16 2.10845
    endloop
  endfacet
  facet normal -0.74727 0.0575541 0.662024
    outer loop
      vertex 22.9576 4.68171e-16 2.10845
      vertex 22.0412 2 0.900118
      vertex 21.9737 2.21567e-16 0.997847
    endloop
  endfacet
  facet normal -0.354017 0.0575541 0.933466
    outer loop
      vertex 21.9737 2.21567e-16 0.997847
      vertex 22.0412 2 0.900118
      vertex 21.9139 2 0.851852
    endloop
  endfacet
  facet normal -0.354017 0.0575541 0.933466
    outer loop
      vertex 21.8101 2.07787e-16 0.935791
      vertex 21.9737 2.21567e-16 0.997847
      vertex 21.9139 2 0.851852
    endloop
  endfacet
  facet normal -0.354017 0.0575541 0.933466
    outer loop
      vertex 21.8101 2.07787e-16 0.935791
      vertex 21.9139 2 0.851852
      vertex 20.437 2 0.29176
    endloop
  endfacet
  facet normal -0.354017 0.0575541 0.933466
    outer loop
      vertex 20.4227 9.09592e-17 0.409644
      vertex 21.8101 2.07787e-16 0.935791
      vertex 20.437 2 0.29176
    endloop
  endfacet
  facet normal 0.120337 0.0575541 0.991063
    outer loop
      vertex 20.4227 9.09592e-17 0.409644
      vertex 20.437 2 0.29176
      vertex 20.3019 2 0.308166
    endloop
  endfacet
  facet normal 0.120337 0.0575541 0.991063
    outer loop
      vertex 20.249 9.5643e-17 0.430738
      vertex 20.4227 9.09592e-17 0.409644
      vertex 20.3019 2 0.308166
    endloop
  endfacet
  facet normal 0.120337 0.0575541 0.991063
    outer loop
      vertex 18.7761 1.35355e-16 0.609584
      vertex 20.249 9.5643e-17 0.430738
      vertex 20.3019 2 0.308166
    endloop
  endfacet
  facet normal 0.120337 0.0575541 0.991063
    outer loop
      vertex 18.734 2 0.498551
      vertex 18.7761 1.35355e-16 0.609584
      vertex 20.3019 2 0.308166
    endloop
  endfacet
  facet normal 0.567123 0.0575541 0.82162
    outer loop
      vertex 18.6321 1.57429e-16 0.708995
      vertex 18.7761 1.35355e-16 0.609584
      vertex 18.734 2 0.498551
    endloop
  endfacet
  facet normal 0.567123 0.0575541 0.82162
    outer loop
      vertex 18.6219 2 0.575871
      vertex 18.6321 1.57429e-16 0.708995
      vertex 18.734 2 0.498551
    endloop
  endfacet
  facet normal 0.567123 0.0575541 0.82162
    outer loop
      vertex 17.4109 3.44583e-16 1.55187
      vertex 18.6321 1.57429e-16 0.708995
      vertex 18.6219 2 0.575871
    endloop
  endfacet
  facet normal 0.567123 0.0575541 0.82162
    outer loop
      vertex 17.3221 2 1.47312
      vertex 17.4109 3.44583e-16 1.55187
      vertex 18.6219 2 0.575871
    endloop
  endfacet
  facet normal 0.883988 0.0575541 0.463953
    outer loop
      vertex 17.3296 3.7899e-16 1.70682
      vertex 17.4109 3.44583e-16 1.55187
      vertex 17.3221 2 1.47312
    endloop
  endfacet
  facet normal 0.883988 0.0575541 0.463953
    outer loop
      vertex 17.2588 2 1.59364
      vertex 17.3296 3.7899e-16 1.70682
      vertex 17.3221 2 1.47312
    endloop
  endfacet
  facet normal 0.883988 0.0575541 0.463953
    outer loop
      vertex 16.6401 6.70713e-16 3.02062
      vertex 17.3296 3.7899e-16 1.70682
      vertex 17.2588 2 1.59364
    endloop
  endfacet
  facet normal 0.883988 0.0575541 0.463953
    outer loop
      vertex 16.5248 2 2.9922
      vertex 16.6401 6.70713e-16 3.02062
      vertex 17.2588 2 1.59364
    endloop
  endfacet
  facet normal 0 1 -2.22045e-16
    outer loop
      vertex 21.4156 -7.6 1.25476
      vertex 29.2085 -7.6 -0.727691
      vertex 20.3683 -7.6 0.857603
    endloop
  endfacet
  facet normal 0 1 -2.22045e-16
    outer loop
      vertex 10.5313 -7.6 1.34253
      vertex 28.6166 -7.6 -2.05725
      vertex 28.127 -7.6 -2.60101
    endloop
  endfacet
  facet normal 0 1 -2.22045e-16
    outer loop
      vertex -29.285 -7.6 9
      vertex 28.127 -7.6 -2.60101
      vertex 27.535 -7.6 -3.03109
    endloop
  endfacet
  facet normal 0 1 -2.22045e-16
    outer loop
      vertex -29.285 -7.6 9
      vertex 27.535 -7.6 -3.03109
      vertex 26.8666 -7.6 -3.3287
    endloop
  endfacet
  facet normal 0 1 -2.22045e-16
    outer loop
      vertex -29.285 -7.6 9
      vertex 26.8666 -7.6 -3.3287
      vertex 26.1508 -7.6 -3.48083
    endloop
  endfacet
  facet normal 0 1 -2.22045e-16
    outer loop
      vertex 21 -7.6 -3
      vertex 26.1508 -7.6 -3.48083
      vertex 21 -7.6 -3.48083
    endloop
  endfacet
  facet normal 0 1 -2.22045e-16
    outer loop
      vertex -29.285 -7.6 9
      vertex 26.1508 -7.6 -3.48083
      vertex 21 -7.6 -3
    endloop
  endfacet
  facet normal 0 1 -2.22045e-16
    outer loop
      vertex 9.3 -7.6 2.71
      vertex -29.285 -7.6 9
      vertex 9.3 -7.6 4.99
    endloop
  endfacet
  facet normal 0 1 -2.22045e-16
    outer loop
      vertex -29.285 -7.6 9
      vertex 1 -7.6 -3
      vertex 1 -7.6 -3.48083
    endloop
  endfacet
  facet normal 0 1 -2.22045e-16
    outer loop
      vertex -29.285 -7.6 9
      vertex 1 -7.6 -3.48083
      vertex -26.1508 -7.6 -3.48083
    endloop
  endfacet
  facet normal 0 1 -2.22045e-16
    outer loop
      vertex -29.285 -7.6 9
      vertex -26.1508 -7.6 -3.48083
      vertex -26.8666 -7.6 -3.3287
    endloop
  endfacet
  facet normal 0 1 -2.22045e-16
    outer loop
      vertex -29.285 -7.6 9
      vertex -26.8666 -7.6 -3.3287
      vertex -27.535 -7.6 -3.03109
    endloop
  endfacet
  facet normal 0 1 -2.22045e-16
    outer loop
      vertex -29.285 -7.6 9
      vertex -27.535 -7.6 -3.03109
      vertex -28.127 -7.6 -2.60101
    endloop
  endfacet
  facet normal 0 1 -2.22045e-16
    outer loop
      vertex -29.285 -7.6 9
      vertex -28.127 -7.6 -2.60101
      vertex -28.6166 -7.6 -2.05725
    endloop
  endfacet
  facet normal 0 1 -2.22045e-16
    outer loop
      vertex -29.285 -7.6 9
      vertex -28.6166 -7.6 -2.05725
      vertex -28.9824 -7.6 -1.42358
    endloop
  endfacet
  facet normal 0 1 -2.22045e-16
    outer loop
      vertex -29.285 -7.6 9
      vertex -28.9824 -7.6 -1.42358
      vertex -29.2085 -7.6 -0.727691
    endloop
  endfacet
  facet normal 0 1 -2.22045e-16
    outer loop
      vertex -29.285 -7.6 9
      vertex -29.2085 -7.6 -0.727691
      vertex -29.285 -7.6 1.68754e-15
    endloop
  endfacet
  facet normal 0 1 -2.22045e-16
    outer loop
      vertex 10.2501 -7.6 6.2977
      vertex -29.285 -7.6 9
      vertex 10.5313 -7.6 6.35747
    endloop
  endfacet
  facet normal 0 1 -2.22045e-16
    outer loop
      vertex 9.5626 -7.6 1.9018
      vertex -29.285 -7.6 9
      vertex 9.41887 -7.6 2.15074
    endloop
  endfacet
  facet normal 0 1 -2.22045e-16
    outer loop
      vertex 20.0479 -7.6 0.89651
      vertex 29.2085 -7.6 -0.727691
      vertex 18.9361 -7.6 1.03151
    endloop
  endfacet
  facet normal 0 1 -2.22045e-16
    outer loop
      vertex -29.285 -7.6 9
      vertex 9.33005 -7.6 2.42412
      vertex 9.41887 -7.6 2.15074
    endloop
  endfacet
  facet normal 0 1 -2.22045e-16
    outer loop
      vertex 11.9311 -7.6 2.15074
      vertex 28.9824 -7.6 -1.42358
      vertex 11.7874 -7.6 1.9018
    endloop
  endfacet
  facet normal 0 1 -2.22045e-16
    outer loop
      vertex 10.2501 -7.6 1.4023
      vertex -29.285 -7.6 9
      vertex 9.9875 -7.6 1.51922
    endloop
  endfacet
  facet normal 0 1 -2.22045e-16
    outer loop
      vertex -29.285 -7.6 9
      vertex 9.5626 -7.6 1.9018
      vertex 9.75494 -7.6 1.68818
    endloop
  endfacet
  facet normal 0 1 -2.22045e-16
    outer loop
      vertex 11.5951 -7.6 1.68818
      vertex 28.6166 -7.6 -2.05725
      vertex 11.3625 -7.6 1.51922
    endloop
  endfacet
  facet normal 0 1 -2.22045e-16
    outer loop
      vertex -29.285 -7.6 9
      vertex 9.75494 -7.6 1.68818
      vertex 9.9875 -7.6 1.51922
    endloop
  endfacet
  facet normal 0 1 -2.22045e-16
    outer loop
      vertex 10.8187 -7.6 1.34253
      vertex 28.6166 -7.6 -2.05725
      vertex 10.5313 -7.6 1.34253
    endloop
  endfacet
  facet normal 0 1 -2.22045e-16
    outer loop
      vertex -29.285 -7.6 9
      vertex 10.2501 -7.6 1.4023
      vertex 28.127 -7.6 -2.60101
    endloop
  endfacet
  facet normal 0 1 -2.22045e-16
    outer loop
      vertex 10.2501 -7.6 1.4023
      vertex 10.5313 -7.6 1.34253
      vertex 28.127 -7.6 -2.60101
    endloop
  endfacet
  facet normal 0 1 -2.22045e-16
    outer loop
      vertex 11.3625 -7.6 1.51922
      vertex 28.6166 -7.6 -2.05725
      vertex 11.0999 -7.6 1.4023
    endloop
  endfacet
  facet normal 0 1 -2.22045e-16
    outer loop
      vertex 11.5951 -7.6 1.68818
      vertex 28.9824 -7.6 -1.42358
      vertex 28.6166 -7.6 -2.05725
    endloop
  endfacet
  facet normal 0 1 -2.22045e-16
    outer loop
      vertex 11.0999 -7.6 1.4023
      vertex 28.6166 -7.6 -2.05725
      vertex 10.8187 -7.6 1.34253
    endloop
  endfacet
  facet normal 0 1 -2.22045e-16
    outer loop
      vertex 11.9311 -7.6 2.15074
      vertex 29.2085 -7.6 -0.727691
      vertex 28.9824 -7.6 -1.42358
    endloop
  endfacet
  facet normal 0 1 -2.22045e-16
    outer loop
      vertex 11.7874 -7.6 1.9018
      vertex 28.9824 -7.6 -1.42358
      vertex 11.5951 -7.6 1.68818
    endloop
  endfacet
  facet normal 0 1 -2.22045e-16
    outer loop
      vertex 18.9361 -7.6 1.03151
      vertex 12.02 -7.6 2.42412
      vertex 18.6704 -7.6 1.21487
    endloop
  endfacet
  facet normal 0 1 -2.22045e-16
    outer loop
      vertex 9.33005 -7.6 2.42412
      vertex -29.285 -7.6 9
      vertex 9.3 -7.6 2.71
    endloop
  endfacet
  facet normal 0 1 -2.22045e-16
    outer loop
      vertex 21.4156 -7.6 1.25476
      vertex 29.285 -7.6 1.68754e-15
      vertex 29.2085 -7.6 -0.727691
    endloop
  endfacet
  facet normal 0 1 -2.22045e-16
    outer loop
      vertex 17.2282 -7.6 4.85719
      vertex 12.05 -7.6 2.71
      vertex 12.05 -7.6 4.99
    endloop
  endfacet
  facet normal 0 1 -2.22045e-16
    outer loop
      vertex 29.285 -7.6 9
      vertex 12.02 -7.6 5.27588
      vertex 11.9311 -7.6 5.54926
    endloop
  endfacet
  facet normal 0 1 -2.22045e-16
    outer loop
      vertex 29.285 -7.6 9
      vertex 11.9311 -7.6 5.54926
      vertex 11.7874 -7.6 5.79821
    endloop
  endfacet
  facet normal 0 1 -2.22045e-16
    outer loop
      vertex 29.285 -7.6 9
      vertex 11.7874 -7.6 5.79821
      vertex 11.5951 -7.6 6.01182
    endloop
  endfacet
  facet normal 0 1 -2.22045e-16
    outer loop
      vertex 29.285 -7.6 9
      vertex 11.5951 -7.6 6.01182
      vertex 11.3625 -7.6 6.18079
    endloop
  endfacet
  facet normal 0 1 -2.22045e-16
    outer loop
      vertex 29.285 -7.6 9
      vertex 11.3625 -7.6 6.18079
      vertex 11.0999 -7.6 6.2977
    endloop
  endfacet
  facet normal 0 1 -2.22045e-16
    outer loop
      vertex 29.285 -7.6 9
      vertex 11.0999 -7.6 6.2977
      vertex 10.8187 -7.6 6.35747
    endloop
  endfacet
  facet normal 0 1 -2.22045e-16
    outer loop
      vertex 29.285 -7.6 9
      vertex 10.8187 -7.6 6.35747
      vertex -29.285 -7.6 9
    endloop
  endfacet
  facet normal 0 1 -2.22045e-16
    outer loop
      vertex 10.8187 -7.6 6.35747
      vertex 10.5313 -7.6 6.35747
      vertex -29.285 -7.6 9
    endloop
  endfacet
  facet normal 0 1 -2.22045e-16
    outer loop
      vertex 9.9875 -7.6 6.18079
      vertex -29.285 -7.6 9
      vertex 10.2501 -7.6 6.2977
    endloop
  endfacet
  facet normal 0 1 -2.22045e-16
    outer loop
      vertex 9.75494 -7.6 6.01182
      vertex -29.285 -7.6 9
      vertex 9.9875 -7.6 6.18079
    endloop
  endfacet
  facet normal 0 1 -2.22045e-16
    outer loop
      vertex 9.5626 -7.6 5.79821
      vertex -29.285 -7.6 9
      vertex 9.75494 -7.6 6.01182
    endloop
  endfacet
  facet normal 0 1 -2.22045e-16
    outer loop
      vertex 9.41887 -7.6 5.54926
      vertex -29.285 -7.6 9
      vertex 9.5626 -7.6 5.79821
    endloop
  endfacet
  facet normal 0 1 -2.22045e-16
    outer loop
      vertex 9.33005 -7.6 5.27588
      vertex -29.285 -7.6 9
      vertex 9.41887 -7.6 5.54926
    endloop
  endfacet
  facet normal 0 1 -2.22045e-16
    outer loop
      vertex 9.3 -7.6 4.99
      vertex -29.285 -7.6 9
      vertex 9.33005 -7.6 5.27588
    endloop
  endfacet
  facet normal 0 1 -2.22045e-16
    outer loop
      vertex 17.0782 -7.6 3.12861
      vertex 12.05 -7.6 2.71
      vertex 17.0782 -7.6 4.57139
    endloop
  endfacet
  facet normal 0 1 -2.22045e-16
    outer loop
      vertex 21.9314 -7.6 6.08918
      vertex 29.285 -7.6 9
      vertex 22.6741 -7.6 5.25085
    endloop
  endfacet
  facet normal 0 1 -2.22045e-16
    outer loop
      vertex 18.6704 -7.6 1.21487
      vertex 12.02 -7.6 2.42412
      vertex 12.05 -7.6 2.71
    endloop
  endfacet
  facet normal 0 1 -2.22045e-16
    outer loop
      vertex 17.0782 -7.6 3.12861
      vertex 17.5987 -7.6 2.1369
      vertex 12.05 -7.6 2.71
    endloop
  endfacet
  facet normal 0 1 -2.22045e-16
    outer loop
      vertex 22.4601 -7.6 2.20755
      vertex 29.285 -7.6 1.68754e-15
      vertex 21.7174 -7.6 1.36922
    endloop
  endfacet
  facet normal 0 1 -2.22045e-16
    outer loop
      vertex 17.5987 -7.6 2.1369
      vertex 17.7487 -7.6 1.8511
      vertex 12.05 -7.6 2.71
    endloop
  endfacet
  facet normal 0 1 -2.22045e-16
    outer loop
      vertex 11.9311 -7.6 2.15074
      vertex 18.9361 -7.6 1.03151
      vertex 29.2085 -7.6 -0.727691
    endloop
  endfacet
  facet normal 0 1 -2.22045e-16
    outer loop
      vertex 20.0479 -7.6 0.89651
      vertex 20.3683 -7.6 0.857603
      vertex 29.2085 -7.6 -0.727691
    endloop
  endfacet
  facet normal 0 1 -2.22045e-16
    outer loop
      vertex 29.285 -7.6 9
      vertex 29.285 -7.6 1.68754e-15
      vertex 22.4601 -7.6 2.20755
    endloop
  endfacet
  facet normal 0 1 -2.22045e-16
    outer loop
      vertex 29.285 -7.6 9
      vertex 22.4601 -7.6 2.20755
      vertex 22.6741 -7.6 2.44915
    endloop
  endfacet
  facet normal 0 1 -2.22045e-16
    outer loop
      vertex 29.285 -7.6 9
      vertex 22.6741 -7.6 2.44915
      vertex 22.9421 -7.6 3.5366
    endloop
  endfacet
  facet normal 0 1 -2.22045e-16
    outer loop
      vertex 29.285 -7.6 9
      vertex 22.9421 -7.6 3.5366
      vertex 23.0194 -7.6 3.85
    endloop
  endfacet
  facet normal 0 1 -2.22045e-16
    outer loop
      vertex 29.285 -7.6 9
      vertex 23.0194 -7.6 3.85
      vertex 22.7513 -7.6 4.93745
    endloop
  endfacet
  facet normal 0 1 -2.22045e-16
    outer loop
      vertex 29.285 -7.6 9
      vertex 22.7513 -7.6 4.93745
      vertex 22.6741 -7.6 5.25085
    endloop
  endfacet
  facet normal 0 1 -2.22045e-16
    outer loop
      vertex 21.7174 -7.6 6.33078
      vertex 29.285 -7.6 9
      vertex 21.9314 -7.6 6.08918
    endloop
  endfacet
  facet normal 0 1 -2.22045e-16
    outer loop
      vertex 18.6704 -7.6 1.21487
      vertex 12.05 -7.6 2.71
      vertex 17.7487 -7.6 1.8511
    endloop
  endfacet
  facet normal 0 1 -2.22045e-16
    outer loop
      vertex 29.285 -7.6 9
      vertex 21.7174 -7.6 6.33078
      vertex 20.6701 -7.6 6.72794
    endloop
  endfacet
  facet normal 0 1 -2.22045e-16
    outer loop
      vertex 29.285 -7.6 9
      vertex 20.6701 -7.6 6.72794
      vertex 20.3683 -7.6 6.8424
    endloop
  endfacet
  facet normal 0 1 -2.22045e-16
    outer loop
      vertex 18.0143 -7.6 6.03226
      vertex 12.02 -7.6 5.27588
      vertex 18.9361 -7.6 6.66849
    endloop
  endfacet
  facet normal 0 1 -2.22045e-16
    outer loop
      vertex 18.0143 -7.6 6.03226
      vertex 12.05 -7.6 4.99
      vertex 12.02 -7.6 5.27588
    endloop
  endfacet
  facet normal 0 1 -2.22045e-16
    outer loop
      vertex 29.285 -7.6 9
      vertex 19.2565 -7.6 6.7074
      vertex 18.9361 -7.6 6.66849
    endloop
  endfacet
  facet normal 0 1 -2.22045e-16
    outer loop
      vertex 29.285 -7.6 9
      vertex 18.9361 -7.6 6.66849
      vertex 12.02 -7.6 5.27588
    endloop
  endfacet
  facet normal 0 1 -2.22045e-16
    outer loop
      vertex 17.2282 -7.6 4.85719
      vertex 12.05 -7.6 4.99
      vertex 17.7487 -7.6 5.8489
    endloop
  endfacet
  facet normal 0 1 -2.22045e-16
    outer loop
      vertex 18.0143 -7.6 6.03226
      vertex 17.7487 -7.6 5.8489
      vertex 12.05 -7.6 4.99
    endloop
  endfacet
  facet normal 0 1 -2.22045e-16
    outer loop
      vertex 17.0782 -7.6 4.57139
      vertex 12.05 -7.6 2.71
      vertex 17.2282 -7.6 4.85719
    endloop
  endfacet
  facet normal 0 1 -2.22045e-16
    outer loop
      vertex 21.7174 -7.6 1.36922
      vertex 29.285 -7.6 1.68754e-15
      vertex 21.4156 -7.6 1.25476
    endloop
  endfacet
  facet normal 0 1 -2.22045e-16
    outer loop
      vertex 19.2565 -7.6 6.7074
      vertex 29.285 -7.6 9
      vertex 20.3683 -7.6 6.8424
    endloop
  endfacet
  facet normal 0 1 -2.22045e-16
    outer loop
      vertex 1 -7.6 -3
      vertex -29.285 -7.6 9
      vertex 21 -7.6 -3
    endloop
  endfacet
  facet normal 0 1 -2.22045e-16
    outer loop
      vertex 12.02 -7.6 2.42412
      vertex 18.9361 -7.6 1.03151
      vertex 11.9311 -7.6 2.15074
    endloop
  endfacet
  facet normal 1 0 0
    outer loop
      vertex -29.285 1.9984e-15 9
      vertex -29.285 -7.6 9
      vertex -29.285 -7.6 1.68754e-15
    endloop
  endfacet
  facet normal 1 0 0
    outer loop
      vertex -29.285 0 0
      vertex -29.285 1.9984e-15 9
      vertex -29.285 -7.6 1.68754e-15
    endloop
  endfacet
  facet normal -1 0 0
    outer loop
      vertex 29.285 -7.6 9
      vertex 29.285 1.9984e-15 9
      vertex 29.285 -7.6 1.68754e-15
    endloop
  endfacet
  facet normal -1 0 0
    outer loop
      vertex 29.285 -7.6 1.68754e-15
      vertex 29.285 1.9984e-15 9
      vertex 29.285 0 0
    endloop
  endfacet
  facet normal 0 -1 2.22045e-16
    outer loop
      vertex -29.2085 -1.6158e-16 -0.727691
      vertex -28.9824 -3.16098e-16 -1.42358
      vertex -28.6166 -4.56801e-16 -2.05725
    endloop
  endfacet
  facet normal 0 -1 2.22045e-16
    outer loop
      vertex -27.535 -6.73037e-16 -3.03109
      vertex -29.2085 -1.6158e-16 -0.727691
      vertex -28.127 -5.7754e-16 -2.60101
    endloop
  endfacet
  facet normal 0 -1 2.22045e-16
    outer loop
      vertex -28.127 -5.7754e-16 -2.60101
      vertex -29.2085 -1.6158e-16 -0.727691
      vertex -28.6166 -4.56801e-16 -2.05725
    endloop
  endfacet
  facet normal 0 -1 2.22045e-16
    outer loop
      vertex -26.8666 -7.39119e-16 -3.3287
      vertex -29.2085 -1.6158e-16 -0.727691
      vertex -27.535 -6.73037e-16 -3.03109
    endloop
  endfacet
  facet normal 0 -1 2.22045e-16
    outer loop
      vertex -26.1508 -7.72899e-16 -3.48083
      vertex -29.2085 -1.6158e-16 -0.727691
      vertex -26.8666 -7.39119e-16 -3.3287
    endloop
  endfacet
  facet normal 0 -1 2.22045e-16
    outer loop
      vertex 1 -7.72899e-16 -3.48083
      vertex -29.2085 -1.6158e-16 -0.727691
      vertex -26.1508 -7.72899e-16 -3.48083
    endloop
  endfacet
  facet normal 0 -1 2.22045e-16
    outer loop
      vertex 1 -6.66134e-16 -3
      vertex -29.2085 -1.6158e-16 -0.727691
      vertex 1 -7.72899e-16 -3.48083
    endloop
  endfacet
  facet normal 0 -1 2.22045e-16
    outer loop
      vertex 21 -6.66134e-16 -3
      vertex -29.2085 -1.6158e-16 -0.727691
      vertex 1 -6.66134e-16 -3
    endloop
  endfacet
  facet normal 0 -1 2.22045e-16
    outer loop
      vertex 27.535 -6.73037e-16 -3.03109
      vertex -29.2085 -1.6158e-16 -0.727691
      vertex 21 -6.66134e-16 -3
    endloop
  endfacet
  facet normal 0 -1 2.22045e-16
    outer loop
      vertex 26.1508 -7.72899e-16 -3.48083
      vertex 21 -6.66134e-16 -3
      vertex 21 -7.72899e-16 -3.48083
    endloop
  endfacet
  facet normal 0 -1 2.22045e-16
    outer loop
      vertex 26.8666 -7.39119e-16 -3.3287
      vertex 21 -6.66134e-16 -3
      vertex 26.1508 -7.72899e-16 -3.48083
    endloop
  endfacet
  facet normal 0 -1 2.22045e-16
    outer loop
      vertex 27.535 -6.73037e-16 -3.03109
      vertex 21 -6.66134e-16 -3
      vertex 26.8666 -7.39119e-16 -3.3287
    endloop
  endfacet
  facet normal 0 -1 2.22045e-16
    outer loop
      vertex 28.127 -5.7754e-16 -2.60101
      vertex -29.2085 -1.6158e-16 -0.727691
      vertex 27.535 -6.73037e-16 -3.03109
    endloop
  endfacet
  facet normal 0 -1 2.22045e-16
    outer loop
      vertex 28.6166 -4.56801e-16 -2.05725
      vertex -29.2085 -1.6158e-16 -0.727691
      vertex 28.127 -5.7754e-16 -2.60101
    endloop
  endfacet
  facet normal 0 -1 2.22045e-16
    outer loop
      vertex 28.9824 -3.16098e-16 -1.42358
      vertex -29.2085 -1.6158e-16 -0.727691
      vertex 28.6166 -4.56801e-16 -2.05725
    endloop
  endfacet
  facet normal 0 -1 2.22045e-16
    outer loop
      vertex 29.2085 -1.6158e-16 -0.727691
      vertex -29.2085 -1.6158e-16 -0.727691
      vertex 28.9824 -3.16098e-16 -1.42358
    endloop
  endfacet
  facet normal 0 -1 2.22045e-16
    outer loop
      vertex 29.285 0 0
      vertex -29.2085 -1.6158e-16 -0.727691
      vertex 29.2085 -1.6158e-16 -0.727691
    endloop
  endfacet
  facet normal 0 -1 2.22045e-16
    outer loop
      vertex 20.4227 9.09592e-17 0.409644
      vertex -29.2085 -1.6158e-16 -0.727691
      vertex 29.285 0 0
    endloop
  endfacet
  facet normal 0 -1 2.22045e-16
    outer loop
      vertex -29.285 1.9984e-15 9
      vertex -29.2085 -1.6158e-16 -0.727691
      vertex 29.285 1.9984e-15 9
    endloop
  endfacet
  facet normal 0 -1 2.22045e-16
    outer loop
      vertex -29.285 0 0
      vertex -29.2085 -1.6158e-16 -0.727691
      vertex -29.285 1.9984e-15 9
    endloop
  endfacet
  facet normal 0 -1 2.22045e-16
    outer loop
      vertex 16.7214 1.07344e-15 4.83433
      vertex -29.2085 -1.6158e-16 -0.727691
      vertex 16.6401 1.03903e-15 4.67938
    endloop
  endfacet
  facet normal 0 -1 2.22045e-16
    outer loop
      vertex 17.4109 1.36516e-15 6.14813
      vertex -29.2085 -1.6158e-16 -0.727691
      vertex 16.7214 1.07344e-15 4.83433
    endloop
  endfacet
  facet normal 0 -1 2.22045e-16
    outer loop
      vertex 17.555 1.38723e-15 6.24755
      vertex -29.2085 -1.6158e-16 -0.727691
      vertex 17.4109 1.36516e-15 6.14813
    endloop
  endfacet
  facet normal 0 -1 2.22045e-16
    outer loop
      vertex 21.9737 1.48818e-15 6.70215
      vertex 22.0897 1.45909e-15 6.57116
      vertex 29.285 1.9984e-15 9
    endloop
  endfacet
  facet normal 0 -1 2.22045e-16
    outer loop
      vertex 18.7761 1.57439e-15 7.09042
      vertex -29.2085 -1.6158e-16 -0.727691
      vertex 17.555 1.38723e-15 6.24755
    endloop
  endfacet
  facet normal 0 -1 2.22045e-16
    outer loop
      vertex 29.285 1.9984e-15 9
      vertex -29.2085 -1.6158e-16 -0.727691
      vertex 18.7761 1.57439e-15 7.09042
    endloop
  endfacet
  facet normal 0 -1 2.22045e-16
    outer loop
      vertex 29.285 1.9984e-15 9
      vertex 18.7761 1.57439e-15 7.09042
      vertex 18.9498 1.57907e-15 7.11151
    endloop
  endfacet
  facet normal 0 -1 2.22045e-16
    outer loop
      vertex 29.285 1.9984e-15 9
      vertex 18.9498 1.57907e-15 7.11151
      vertex 20.4227 1.61878e-15 7.29036
    endloop
  endfacet
  facet normal 0 -1 2.22045e-16
    outer loop
      vertex 18.6321 1.57429e-16 0.708995
      vertex 17.4109 3.44583e-16 1.55187
      vertex -29.2085 -1.6158e-16 -0.727691
    endloop
  endfacet
  facet normal 0 -1 2.22045e-16
    outer loop
      vertex 29.285 1.9984e-15 9
      vertex 20.4227 1.61878e-15 7.29036
      vertex 20.5864 1.60501e-15 7.2283
    endloop
  endfacet
  facet normal 0 -1 2.22045e-16
    outer loop
      vertex 22.0897 1.45909e-15 6.57116
      vertex 23.0737 1.21249e-15 5.46056
      vertex 29.285 1.9984e-15 9
    endloop
  endfacet
  facet normal 0 -1 2.22045e-16
    outer loop
      vertex 23.4287 8.17143e-16 3.68009
      vertex 23.0737 4.97256e-16 2.23944
      vertex 29.285 0 0
    endloop
  endfacet
  facet normal 0 -1 2.22045e-16
    outer loop
      vertex 29.285 1.9984e-15 9
      vertex 23.0737 1.21249e-15 5.46056
      vertex 29.285 0 0
    endloop
  endfacet
  facet normal 0 -1 2.22045e-16
    outer loop
      vertex 23.0737 1.21249e-15 5.46056
      vertex 23.1155 1.17476e-15 5.29064
      vertex 29.285 0 0
    endloop
  endfacet
  facet normal 0 -1 2.22045e-16
    outer loop
      vertex 23.1155 1.17476e-15 5.29064
      vertex 23.4706 8.54872e-16 3.85
      vertex 29.285 0 0
    endloop
  endfacet
  facet normal 0 -1 2.22045e-16
    outer loop
      vertex 23.4706 8.54872e-16 3.85
      vertex 23.4287 8.17143e-16 3.68009
      vertex 29.285 0 0
    endloop
  endfacet
  facet normal 0 -1 2.22045e-16
    outer loop
      vertex 23.0737 4.97256e-16 2.23944
      vertex 22.9576 4.68171e-16 2.10845
      vertex 29.285 0 0
    endloop
  endfacet
  facet normal 0 -1 2.22045e-16
    outer loop
      vertex 22.9576 4.68171e-16 2.10845
      vertex 21.9737 2.21567e-16 0.997847
      vertex 29.285 0 0
    endloop
  endfacet
  facet normal 0 -1 2.22045e-16
    outer loop
      vertex 21.9737 2.21567e-16 0.997847
      vertex 21.8101 2.07787e-16 0.935791
      vertex 29.285 0 0
    endloop
  endfacet
  facet normal 0 -1 2.22045e-16
    outer loop
      vertex 21.8101 2.07787e-16 0.935791
      vertex 20.4227 9.09592e-17 0.409644
      vertex 29.285 0 0
    endloop
  endfacet
  facet normal 0 -1 2.22045e-16
    outer loop
      vertex 20.249 9.5643e-17 0.430738
      vertex -29.2085 -1.6158e-16 -0.727691
      vertex 20.4227 9.09592e-17 0.409644
    endloop
  endfacet
  facet normal 0 -1 2.22045e-16
    outer loop
      vertex 18.7761 1.35355e-16 0.609584
      vertex -29.2085 -1.6158e-16 -0.727691
      vertex 20.249 9.5643e-17 0.430738
    endloop
  endfacet
  facet normal 0 -1 2.22045e-16
    outer loop
      vertex 18.6321 1.57429e-16 0.708995
      vertex -29.2085 -1.6158e-16 -0.727691
      vertex 18.7761 1.35355e-16 0.609584
    endloop
  endfacet
  facet normal 0 -1 2.22045e-16
    outer loop
      vertex 17.3296 3.7899e-16 1.70682
      vertex 16.6401 6.70713e-16 3.02062
      vertex -29.2085 -1.6158e-16 -0.727691
    endloop
  endfacet
  facet normal 0 -1 2.22045e-16
    outer loop
      vertex 17.3296 3.7899e-16 1.70682
      vertex -29.2085 -1.6158e-16 -0.727691
      vertex 17.4109 3.44583e-16 1.55187
    endloop
  endfacet
  facet normal 0 -1 2.22045e-16
    outer loop
      vertex 16.6401 1.03903e-15 4.67938
      vertex -29.2085 -1.6158e-16 -0.727691
      vertex 16.6401 6.70713e-16 3.02062
    endloop
  endfacet
  facet normal 0 -1 2.22045e-16
    outer loop
      vertex 20.5864 1.60501e-15 7.2283
      vertex 21.9737 1.48818e-15 6.70215
      vertex 29.285 1.9984e-15 9
    endloop
  endfacet
  facet normal 0 -2.22045e-16 -1
    outer loop
      vertex 21 -9 -3
      vertex 1 -9 -3
      vertex 21 -7.6 -3
    endloop
  endfacet
  facet normal 0 -2.22045e-16 -1
    outer loop
      vertex 21 -7.6 -3
      vertex 1 -9 -3
      vertex 1 -7.6 -3
    endloop
  endfacet
  facet normal 0.994522 2.32099e-17 0.104528
    outer loop
      vertex 9.3 -9 2.71
      vertex 9.33005 -9 2.42412
      vertex 9.33005 -7.6 2.42412
    endloop
  endfacet
  facet normal 0.994522 2.32099e-17 0.104528
    outer loop
      vertex 9.3 -7.6 2.71
      vertex 9.3 -9 2.71
      vertex 9.33005 -7.6 2.42412
    endloop
  endfacet
  facet normal 1 0 0
    outer loop
      vertex 9.3 -7.6 4.99
      vertex 9.3 -9 4.99
      vertex 9.3 -9 2.71
    endloop
  endfacet
  facet normal 1 0 0
    outer loop
      vertex 9.3 -7.6 2.71
      vertex 9.3 -7.6 4.99
      vertex 9.3 -9 2.71
    endloop
  endfacet
  facet normal 0.951056 6.86157e-17 0.309017
    outer loop
      vertex 9.33005 -9 2.42412
      vertex 9.41887 -9 2.15074
      vertex 9.41887 -7.6 2.15074
    endloop
  endfacet
  facet normal 0.951056 6.86157e-17 0.309017
    outer loop
      vertex 9.33005 -7.6 2.42412
      vertex 9.33005 -9 2.42412
      vertex 9.41887 -7.6 2.15074
    endloop
  endfacet
  facet normal 0.866025 1.11022e-16 0.500001
    outer loop
      vertex 9.41887 -9 2.15074
      vertex 9.5626 -9 1.9018
      vertex 9.5626 -7.6 1.9018
    endloop
  endfacet
  facet normal 0.866025 1.11022e-16 0.500001
    outer loop
      vertex 9.41887 -7.6 2.15074
      vertex 9.41887 -9 2.15074
      vertex 9.5626 -7.6 1.9018
    endloop
  endfacet
  facet normal 0.743146 1.48577e-16 0.66913
    outer loop
      vertex 9.5626 -9 1.9018
      vertex 9.75494 -9 1.68818
      vertex 9.75494 -7.6 1.68818
    endloop
  endfacet
  facet normal 0.743146 1.48577e-16 0.66913
    outer loop
      vertex 9.5626 -7.6 1.9018
      vertex 9.5626 -9 1.9018
      vertex 9.75494 -7.6 1.68818
    endloop
  endfacet
  facet normal 0.587785 1.79638e-16 0.809017
    outer loop
      vertex 9.75494 -9 1.68818
      vertex 9.9875 -9 1.51922
      vertex 9.9875 -7.6 1.51922
    endloop
  endfacet
  facet normal 0.587785 1.79638e-16 0.809017
    outer loop
      vertex 9.75494 -7.6 1.68818
      vertex 9.75494 -9 1.68818
      vertex 9.9875 -7.6 1.51922
    endloop
  endfacet
  facet normal 0.406737 2.02848e-16 0.913545
    outer loop
      vertex 9.9875 -9 1.51922
      vertex 10.2501 -9 1.4023
      vertex 10.2501 -7.6 1.4023
    endloop
  endfacet
  facet normal 0.406737 2.02848e-16 0.913545
    outer loop
      vertex 9.9875 -7.6 1.51922
      vertex 9.9875 -9 1.51922
      vertex 10.2501 -7.6 1.4023
    endloop
  endfacet
  facet normal 0.207913 2.17192e-16 0.978147
    outer loop
      vertex 10.2501 -9 1.4023
      vertex 10.5313 -9 1.34253
      vertex 10.5313 -7.6 1.34253
    endloop
  endfacet
  facet normal 0.207913 2.17192e-16 0.978147
    outer loop
      vertex 10.2501 -7.6 1.4023
      vertex 10.2501 -9 1.4023
      vertex 10.5313 -7.6 1.34253
    endloop
  endfacet
  facet normal 0 2.22045e-16 1
    outer loop
      vertex 10.5313 -9 1.34253
      vertex 10.8187 -9 1.34253
      vertex 10.8187 -7.6 1.34253
    endloop
  endfacet
  facet normal 0 2.22045e-16 1
    outer loop
      vertex 10.5313 -7.6 1.34253
      vertex 10.5313 -9 1.34253
      vertex 10.8187 -7.6 1.34253
    endloop
  endfacet
  facet normal -0.207913 2.17192e-16 0.978147
    outer loop
      vertex 10.8187 -9 1.34253
      vertex 11.0999 -9 1.4023
      vertex 11.0999 -7.6 1.4023
    endloop
  endfacet
  facet normal -0.207913 2.17192e-16 0.978147
    outer loop
      vertex 10.8187 -7.6 1.34253
      vertex 10.8187 -9 1.34253
      vertex 11.0999 -7.6 1.4023
    endloop
  endfacet
  facet normal -0.406737 2.02848e-16 0.913545
    outer loop
      vertex 11.0999 -9 1.4023
      vertex 11.3625 -9 1.51922
      vertex 11.3625 -7.6 1.51922
    endloop
  endfacet
  facet normal -0.406737 2.02848e-16 0.913545
    outer loop
      vertex 11.0999 -7.6 1.4023
      vertex 11.0999 -9 1.4023
      vertex 11.3625 -7.6 1.51922
    endloop
  endfacet
  facet normal -0.587785 1.79638e-16 0.809017
    outer loop
      vertex 11.3625 -9 1.51922
      vertex 11.5951 -9 1.68818
      vertex 11.5951 -7.6 1.68818
    endloop
  endfacet
  facet normal -0.587785 1.79638e-16 0.809017
    outer loop
      vertex 11.3625 -7.6 1.51922
      vertex 11.3625 -9 1.51922
      vertex 11.5951 -7.6 1.68818
    endloop
  endfacet
  facet normal -0.743146 1.48577e-16 0.66913
    outer loop
      vertex 11.7874 -9 1.9018
      vertex 11.7874 -7.6 1.9018
      vertex 11.5951 -9 1.68818
    endloop
  endfacet
  facet normal -0.743146 1.48577e-16 0.66913
    outer loop
      vertex 11.5951 -9 1.68818
      vertex 11.7874 -7.6 1.9018
      vertex 11.5951 -7.6 1.68818
    endloop
  endfacet
  facet normal -0.866025 1.11022e-16 0.500001
    outer loop
      vertex 11.9311 -9 2.15074
      vertex 11.9311 -7.6 2.15074
      vertex 11.7874 -9 1.9018
    endloop
  endfacet
  facet normal -0.866025 1.11022e-16 0.500001
    outer loop
      vertex 11.7874 -9 1.9018
      vertex 11.9311 -7.6 2.15074
      vertex 11.7874 -7.6 1.9018
    endloop
  endfacet
  facet normal -0.951056 6.86157e-17 0.309017
    outer loop
      vertex 12.02 -9 2.42412
      vertex 12.02 -7.6 2.42412
      vertex 11.9311 -9 2.15074
    endloop
  endfacet
  facet normal -0.951056 6.86157e-17 0.309017
    outer loop
      vertex 11.9311 -9 2.15074
      vertex 12.02 -7.6 2.42412
      vertex 11.9311 -7.6 2.15074
    endloop
  endfacet
  facet normal -0.994522 2.32099e-17 0.104528
    outer loop
      vertex 12.05 -9 2.71
      vertex 12.05 -7.6 2.71
      vertex 12.02 -9 2.42412
    endloop
  endfacet
  facet normal -0.994522 2.32099e-17 0.104528
    outer loop
      vertex 12.02 -9 2.42412
      vertex 12.05 -7.6 2.71
      vertex 12.02 -7.6 2.42412
    endloop
  endfacet
  facet normal -1 0 0
    outer loop
      vertex 12.05 -9 4.99
      vertex 12.05 -7.6 4.99
      vertex 12.05 -9 2.71
    endloop
  endfacet
  facet normal -1 0 0
    outer loop
      vertex 12.05 -9 2.71
      vertex 12.05 -7.6 4.99
      vertex 12.05 -7.6 2.71
    endloop
  endfacet
  facet normal -0.994522 -2.32099e-17 -0.104528
    outer loop
      vertex 12.05 -9 4.99
      vertex 12.02 -9 5.27588
      vertex 12.05 -7.6 4.99
    endloop
  endfacet
  facet normal -0.994522 -2.32099e-17 -0.104528
    outer loop
      vertex 12.05 -7.6 4.99
      vertex 12.02 -9 5.27588
      vertex 12.02 -7.6 5.27588
    endloop
  endfacet
  facet normal -0.951056 -6.86157e-17 -0.309017
    outer loop
      vertex 12.02 -9 5.27588
      vertex 11.9311 -9 5.54926
      vertex 12.02 -7.6 5.27588
    endloop
  endfacet
  facet normal -0.951056 -6.86157e-17 -0.309017
    outer loop
      vertex 12.02 -7.6 5.27588
      vertex 11.9311 -9 5.54926
      vertex 11.9311 -7.6 5.54926
    endloop
  endfacet
  facet normal -0.866025 -1.11022e-16 -0.500001
    outer loop
      vertex 11.9311 -9 5.54926
      vertex 11.7874 -9 5.79821
      vertex 11.9311 -7.6 5.54926
    endloop
  endfacet
  facet normal -0.866025 -1.11022e-16 -0.500001
    outer loop
      vertex 11.9311 -7.6 5.54926
      vertex 11.7874 -9 5.79821
      vertex 11.7874 -7.6 5.79821
    endloop
  endfacet
  facet normal -0.743146 -1.48577e-16 -0.66913
    outer loop
      vertex 11.7874 -9 5.79821
      vertex 11.5951 -9 6.01182
      vertex 11.7874 -7.6 5.79821
    endloop
  endfacet
  facet normal -0.743146 -1.48577e-16 -0.66913
    outer loop
      vertex 11.7874 -7.6 5.79821
      vertex 11.5951 -9 6.01182
      vertex 11.5951 -7.6 6.01182
    endloop
  endfacet
  facet normal -0.587785 -1.79638e-16 -0.809017
    outer loop
      vertex 11.5951 -9 6.01182
      vertex 11.3625 -9 6.18079
      vertex 11.5951 -7.6 6.01182
    endloop
  endfacet
  facet normal -0.587785 -1.79638e-16 -0.809017
    outer loop
      vertex 11.5951 -7.6 6.01182
      vertex 11.3625 -9 6.18079
      vertex 11.3625 -7.6 6.18079
    endloop
  endfacet
  facet normal -0.406737 -2.02848e-16 -0.913545
    outer loop
      vertex 11.3625 -9 6.18079
      vertex 11.0999 -9 6.2977
      vertex 11.3625 -7.6 6.18079
    endloop
  endfacet
  facet normal -0.406737 -2.02848e-16 -0.913545
    outer loop
      vertex 11.3625 -7.6 6.18079
      vertex 11.0999 -9 6.2977
      vertex 11.0999 -7.6 6.2977
    endloop
  endfacet
  facet normal -0.207913 -2.17192e-16 -0.978147
    outer loop
      vertex 11.0999 -9 6.2977
      vertex 10.8187 -9 6.35747
      vertex 11.0999 -7.6 6.2977
    endloop
  endfacet
  facet normal -0.207913 -2.17192e-16 -0.978147
    outer loop
      vertex 11.0999 -7.6 6.2977
      vertex 10.8187 -9 6.35747
      vertex 10.8187 -7.6 6.35747
    endloop
  endfacet
  facet normal 0 -2.22045e-16 -1
    outer loop
      vertex 10.8187 -9 6.35747
      vertex 10.5313 -9 6.35747
      vertex 10.8187 -7.6 6.35747
    endloop
  endfacet
  facet normal 0 -2.22045e-16 -1
    outer loop
      vertex 10.8187 -7.6 6.35747
      vertex 10.5313 -9 6.35747
      vertex 10.5313 -7.6 6.35747
    endloop
  endfacet
  facet normal 0.207913 -2.17192e-16 -0.978147
    outer loop
      vertex 10.5313 -9 6.35747
      vertex 10.2501 -9 6.2977
      vertex 10.5313 -7.6 6.35747
    endloop
  endfacet
  facet normal 0.207913 -2.17192e-16 -0.978147
    outer loop
      vertex 10.5313 -7.6 6.35747
      vertex 10.2501 -9 6.2977
      vertex 10.2501 -7.6 6.2977
    endloop
  endfacet
  facet normal 0.406737 -2.02848e-16 -0.913545
    outer loop
      vertex 10.2501 -9 6.2977
      vertex 9.9875 -9 6.18079
      vertex 10.2501 -7.6 6.2977
    endloop
  endfacet
  facet normal 0.406737 -2.02848e-16 -0.913545
    outer loop
      vertex 10.2501 -7.6 6.2977
      vertex 9.9875 -9 6.18079
      vertex 9.9875 -7.6 6.18079
    endloop
  endfacet
  facet normal 0.587785 -1.79638e-16 -0.809017
    outer loop
      vertex 9.9875 -9 6.18079
      vertex 9.75494 -9 6.01182
      vertex 9.9875 -7.6 6.18079
    endloop
  endfacet
  facet normal 0.587785 -1.79638e-16 -0.809017
    outer loop
      vertex 9.9875 -7.6 6.18079
      vertex 9.75494 -9 6.01182
      vertex 9.75494 -7.6 6.01182
    endloop
  endfacet
  facet normal 0.743146 -1.48577e-16 -0.66913
    outer loop
      vertex 9.75494 -7.6 6.01182
      vertex 9.75494 -9 6.01182
      vertex 9.5626 -9 5.79821
    endloop
  endfacet
  facet normal 0.743146 -1.48577e-16 -0.66913
    outer loop
      vertex 9.5626 -7.6 5.79821
      vertex 9.75494 -7.6 6.01182
      vertex 9.5626 -9 5.79821
    endloop
  endfacet
  facet normal 0.866025 -1.11022e-16 -0.500001
    outer loop
      vertex 9.5626 -7.6 5.79821
      vertex 9.5626 -9 5.79821
      vertex 9.41887 -9 5.54926
    endloop
  endfacet
  facet normal 0.866025 -1.11022e-16 -0.500001
    outer loop
      vertex 9.41887 -7.6 5.54926
      vertex 9.5626 -7.6 5.79821
      vertex 9.41887 -9 5.54926
    endloop
  endfacet
  facet normal 0.951056 -6.86157e-17 -0.309017
    outer loop
      vertex 9.41887 -7.6 5.54926
      vertex 9.41887 -9 5.54926
      vertex 9.33005 -9 5.27588
    endloop
  endfacet
  facet normal 0.951056 -6.86157e-17 -0.309017
    outer loop
      vertex 9.33005 -7.6 5.27588
      vertex 9.41887 -7.6 5.54926
      vertex 9.33005 -9 5.27588
    endloop
  endfacet
  facet normal 0.994522 -2.32099e-17 -0.104528
    outer loop
      vertex 9.33005 -7.6 5.27588
      vertex 9.33005 -9 5.27588
      vertex 9.3 -9 4.99
    endloop
  endfacet
  facet normal 0.994522 -2.32099e-17 -0.104528
    outer loop
      vertex 9.3 -7.6 4.99
      vertex 9.33005 -7.6 5.27588
      vertex 9.3 -9 4.99
    endloop
  endfacet
  facet normal -0.910819 -0.0772055 -0.405523
    outer loop
      vertex 17.9264 -30 3.40819
      vertex 16.3003 -9 3.06253
      vertex 16.833 -9 1.86593
    endloop
  endfacet
  facet normal -0.997015 -0.0772055 1.71431e-17
    outer loop
      vertex 16.3003 -9 3.06253
      vertex 17.9264 -30 3.40819
      vertex 16.3003 -9 4.63747
    endloop
  endfacet
  facet normal -0.997015 -0.0772055 1.71431e-17
    outer loop
      vertex 16.3003 -9 4.63747
      vertex 17.9264 -30 3.40819
      vertex 17.9264 -30 4.29181
    endloop
  endfacet
  facet normal -0.910819 -0.0772055 -0.405523
    outer loop
      vertex 16.833 -9 1.86593
      vertex 16.9408 -9 1.62376
      vertex 17.9264 -30 3.40819
    endloop
  endfacet
  facet normal -0.910819 -0.0772055 -0.405523
    outer loop
      vertex 17.9264 -30 3.40819
      vertex 16.9408 -9 1.62376
      vertex 18.2858 -30 2.60096
    endloop
  endfacet
  facet normal -0.667133 -0.0772055 -0.740927
    outer loop
      vertex 18.2858 -30 2.60096
      vertex 16.9408 -9 1.62376
      vertex 17.9143 -9 0.747307
    endloop
  endfacet
  facet normal -0.667133 -0.0772055 -0.740927
    outer loop
      vertex 17.9143 -9 0.747307
      vertex 18.1113 -9 0.569929
      vertex 18.2858 -30 2.60096
    endloop
  endfacet
  facet normal -0.667133 -0.0772055 -0.740927
    outer loop
      vertex 18.2858 -30 2.60096
      vertex 18.1113 -9 0.569929
      vertex 18.9425 -30 2.0097
    endloop
  endfacet
  facet normal -0.308095 -0.0772055 -0.948218
    outer loop
      vertex 18.9425 -30 2.0097
      vertex 18.1113 -9 0.569929
      vertex 19.357 -9 0.165165
    endloop
  endfacet
  facet normal -0.308095 -0.0772056 -0.948218
    outer loop
      vertex 18.9425 -30 2.0097
      vertex 19.357 -9 0.165165
      vertex 19.7829 -30 1.73664
    endloop
  endfacet
  facet normal -0.308095 -0.0772056 -0.948218
    outer loop
      vertex 19.7829 -30 1.73664
      vertex 19.357 -9 0.165165
      vertex 19.6091 -9 0.083248
    endloop
  endfacet
  facet normal 0.104217 -0.0772056 -0.991553
    outer loop
      vertex 19.7829 -30 1.73664
      vertex 19.6091 -9 0.083248
      vertex 20.9118 -9 0.220165
    endloop
  endfacet
  facet normal 0.104217 -0.0772055 -0.991553
    outer loop
      vertex 19.7829 -30 1.73664
      vertex 20.9118 -9 0.220165
      vertex 20.6617 -30 1.82901
    endloop
  endfacet
  facet normal 0.104217 -0.0772055 -0.991553
    outer loop
      vertex 20.6617 -30 1.82901
      vertex 20.9118 -9 0.220165
      vertex 21.1754 -9 0.247874
    endloop
  endfacet
  facet normal 0.498507 -0.0772055 -0.863441
    outer loop
      vertex 22.3098 -9 0.902795
      vertex 20.6617 -30 1.82901
      vertex 21.1754 -9 0.247874
    endloop
  endfacet
  facet normal 0.498507 -0.0772055 -0.863441
    outer loop
      vertex 20.6617 -30 1.82901
      vertex 22.3098 -9 0.902795
      vertex 21.4269 -30 2.27082
    endloop
  endfacet
  facet normal 0.498507 -0.0772055 -0.863441
    outer loop
      vertex 21.4269 -30 2.27082
      vertex 22.3098 -9 0.902795
      vertex 22.5393 -9 1.03534
    endloop
  endfacet
  facet normal 0.806602 -0.0772055 -0.586031
    outer loop
      vertex 23.3092 -9 2.09502
      vertex 21.4269 -30 2.27082
      vertex 22.5393 -9 1.03534
    endloop
  endfacet
  facet normal 0.806603 -0.0772056 -0.58603
    outer loop
      vertex 21.9463 -30 2.98569
      vertex 21.4269 -30 2.27082
      vertex 23.3092 -9 2.09502
    endloop
  endfacet
  facet normal 0.806603 -0.0772056 -0.58603
    outer loop
      vertex 23.4651 -9 2.30949
      vertex 21.9463 -30 2.98569
      vertex 23.3092 -9 2.09502
    endloop
  endfacet
  facet normal 0.975228 -0.0772056 -0.207291
    outer loop
      vertex 23.7374 -9 3.59071
      vertex 21.9463 -30 2.98569
      vertex 23.4651 -9 2.30949
    endloop
  endfacet
  facet normal 0.975228 -0.0772055 -0.207291
    outer loop
      vertex 22.13 -30 3.85
      vertex 21.9463 -30 2.98569
      vertex 23.7374 -9 3.59071
    endloop
  endfacet
  facet normal 0.975228 -0.0772055 -0.207291
    outer loop
      vertex 23.7925 -9 3.85
      vertex 22.13 -30 3.85
      vertex 23.7374 -9 3.59071
    endloop
  endfacet
  facet normal 0.975228 -0.0772056 0.207291
    outer loop
      vertex 23.5202 -9 5.13122
      vertex 22.13 -30 3.85
      vertex 23.7925 -9 3.85
    endloop
  endfacet
  facet normal 0.975228 -0.0772056 0.207291
    outer loop
      vertex 23.4651 -9 5.39052
      vertex 21.9463 -30 4.71432
      vertex 22.13 -30 3.85
    endloop
  endfacet
  facet normal 0.975228 -0.0772056 0.207291
    outer loop
      vertex 23.5202 -9 5.13122
      vertex 23.4651 -9 5.39052
      vertex 22.13 -30 3.85
    endloop
  endfacet
  facet normal 0.806602 -0.0772056 0.586031
    outer loop
      vertex 22.6951 -9 6.4502
      vertex 21.9463 -30 4.71432
      vertex 23.4651 -9 5.39052
    endloop
  endfacet
  facet normal 0.806603 -0.0772055 0.58603
    outer loop
      vertex 22.5393 -9 6.66466
      vertex 21.4269 -30 5.42918
      vertex 21.9463 -30 4.71432
    endloop
  endfacet
  facet normal 0.806603 -0.0772055 0.58603
    outer loop
      vertex 22.6951 -9 6.4502
      vertex 22.5393 -9 6.66466
      vertex 21.9463 -30 4.71432
    endloop
  endfacet
  facet normal 0.498507 -0.0772055 0.863441
    outer loop
      vertex 22.5393 -9 6.66466
      vertex 21.405 -9 7.31958
      vertex 21.4269 -30 5.42918
    endloop
  endfacet
  facet normal 0.498507 -0.0772056 0.863441
    outer loop
      vertex 21.1754 -9 7.45213
      vertex 20.6617 -30 5.871
      vertex 21.4269 -30 5.42918
    endloop
  endfacet
  facet normal 0.498507 -0.0772056 0.863441
    outer loop
      vertex 21.405 -9 7.31958
      vertex 21.1754 -9 7.45213
      vertex 21.4269 -30 5.42918
    endloop
  endfacet
  facet normal 0.104217 -0.0772056 0.991553
    outer loop
      vertex 21.1754 -9 7.45213
      vertex 19.8727 -9 7.58904
      vertex 20.6617 -30 5.871
    endloop
  endfacet
  facet normal 0.104217 -0.0772056 0.991553
    outer loop
      vertex 19.8727 -9 7.58904
      vertex 19.6091 -9 7.61675
      vertex 19.7829 -30 5.96336
    endloop
  endfacet
  facet normal 0.104217 -0.0772056 0.991553
    outer loop
      vertex 20.6617 -30 5.871
      vertex 19.8727 -9 7.58904
      vertex 19.7829 -30 5.96336
    endloop
  endfacet
  facet normal -0.308095 -0.0772056 0.948218
    outer loop
      vertex 19.6091 -9 7.61675
      vertex 18.3634 -9 7.21199
      vertex 19.7829 -30 5.96336
    endloop
  endfacet
  facet normal -0.308095 -0.0772055 0.948218
    outer loop
      vertex 18.3634 -9 7.21199
      vertex 18.1113 -9 7.13007
      vertex 18.9425 -30 5.6903
    endloop
  endfacet
  facet normal -0.308095 -0.0772055 0.948218
    outer loop
      vertex 19.7829 -30 5.96336
      vertex 18.3634 -9 7.21199
      vertex 18.9425 -30 5.6903
    endloop
  endfacet
  facet normal -0.667133 -0.0772055 0.740927
    outer loop
      vertex 18.1113 -9 7.13007
      vertex 17.1378 -9 6.25362
      vertex 18.9425 -30 5.6903
    endloop
  endfacet
  facet normal -0.667133 -0.0772055 0.740927
    outer loop
      vertex 17.1378 -9 6.25362
      vertex 16.9408 -9 6.07624
      vertex 18.2858 -30 5.09904
    endloop
  endfacet
  facet normal -0.667133 -0.0772055 0.740927
    outer loop
      vertex 18.9425 -30 5.6903
      vertex 17.1378 -9 6.25362
      vertex 18.2858 -30 5.09904
    endloop
  endfacet
  facet normal -0.910819 -0.0772055 0.405523
    outer loop
      vertex 16.9408 -9 6.07624
      vertex 16.4081 -9 4.87964
      vertex 18.2858 -30 5.09904
    endloop
  endfacet
  facet normal -0.910819 -0.0772055 0.405523
    outer loop
      vertex 16.3003 -9 4.63747
      vertex 17.9264 -30 4.29181
      vertex 16.4081 -9 4.87964
    endloop
  endfacet
  facet normal -0.910819 -0.0772055 0.405523
    outer loop
      vertex 16.4081 -9 4.87964
      vertex 17.9264 -30 4.29181
      vertex 18.2858 -30 5.09904
    endloop
  endfacet
  facet normal 0 2.22045e-16 1
    outer loop
      vertex -26.1508 -7.6 -3.48083
      vertex 1 -7.6 -3.48083
      vertex 1 -7.72899e-16 -3.48083
    endloop
  endfacet
  facet normal 0 2.22045e-16 1
    outer loop
      vertex -26.1508 -7.72899e-16 -3.48083
      vertex -26.1508 -7.6 -3.48083
      vertex 1 -7.72899e-16 -3.48083
    endloop
  endfacet
  facet normal 0 2.22045e-16 1
    outer loop
      vertex 21 -7.6 -3.48083
      vertex 26.1508 -7.6 -3.48083
      vertex 26.1508 -7.72899e-16 -3.48083
    endloop
  endfacet
  facet normal 0 2.22045e-16 1
    outer loop
      vertex 21 -7.72899e-16 -3.48083
      vertex 21 -7.6 -3.48083
      vertex 26.1508 -7.72899e-16 -3.48083
    endloop
  endfacet
  facet normal 0.994522 2.32099e-17 0.104528
    outer loop
      vertex -29.285 -7.6 1.68754e-15
      vertex -29.2085 -7.6 -0.727691
      vertex -29.2085 -1.6158e-16 -0.727691
    endloop
  endfacet
  facet normal 0.994522 2.32099e-17 0.104528
    outer loop
      vertex -29.285 0 0
      vertex -29.285 -7.6 1.68754e-15
      vertex -29.2085 -1.6158e-16 -0.727691
    endloop
  endfacet
  facet normal 0.951056 6.86157e-17 0.309018
    outer loop
      vertex -29.2085 -7.6 -0.727691
      vertex -28.9824 -7.6 -1.42358
      vertex -28.9824 -3.16098e-16 -1.42358
    endloop
  endfacet
  facet normal 0.951056 6.86157e-17 0.309018
    outer loop
      vertex -29.2085 -1.6158e-16 -0.727691
      vertex -29.2085 -7.6 -0.727691
      vertex -28.9824 -3.16098e-16 -1.42358
    endloop
  endfacet
  facet normal 0.866025 1.11022e-16 0.5
    outer loop
      vertex -28.9824 -7.6 -1.42358
      vertex -28.6166 -7.6 -2.05725
      vertex -28.6166 -4.56801e-16 -2.05725
    endloop
  endfacet
  facet normal 0.866025 1.11022e-16 0.5
    outer loop
      vertex -28.9824 -3.16098e-16 -1.42358
      vertex -28.9824 -7.6 -1.42358
      vertex -28.6166 -4.56801e-16 -2.05725
    endloop
  endfacet
  facet normal 0.743145 1.48577e-16 0.66913
    outer loop
      vertex -28.6166 -7.6 -2.05725
      vertex -28.127 -7.6 -2.60101
      vertex -28.127 -5.7754e-16 -2.60101
    endloop
  endfacet
  facet normal 0.743145 1.48577e-16 0.66913
    outer loop
      vertex -28.6166 -4.56801e-16 -2.05725
      vertex -28.6166 -7.6 -2.05725
      vertex -28.127 -5.7754e-16 -2.60101
    endloop
  endfacet
  facet normal 0.587785 1.79638e-16 0.809017
    outer loop
      vertex -28.127 -7.6 -2.60101
      vertex -27.535 -7.6 -3.03109
      vertex -27.535 -6.73037e-16 -3.03109
    endloop
  endfacet
  facet normal 0.587785 1.79638e-16 0.809017
    outer loop
      vertex -28.127 -5.7754e-16 -2.60101
      vertex -28.127 -7.6 -2.60101
      vertex -27.535 -6.73037e-16 -3.03109
    endloop
  endfacet
  facet normal 0.406737 2.02848e-16 0.913546
    outer loop
      vertex -27.535 -7.6 -3.03109
      vertex -26.8666 -7.6 -3.3287
      vertex -26.8666 -7.39119e-16 -3.3287
    endloop
  endfacet
  facet normal 0.406737 2.02848e-16 0.913546
    outer loop
      vertex -27.535 -6.73037e-16 -3.03109
      vertex -27.535 -7.6 -3.03109
      vertex -26.8666 -7.39119e-16 -3.3287
    endloop
  endfacet
  facet normal 0.207912 2.17192e-16 0.978148
    outer loop
      vertex -26.8666 -7.6 -3.3287
      vertex -26.1508 -7.6 -3.48083
      vertex -26.1508 -7.72899e-16 -3.48083
    endloop
  endfacet
  facet normal 0.207912 2.17192e-16 0.978148
    outer loop
      vertex -26.8666 -7.39119e-16 -3.3287
      vertex -26.8666 -7.6 -3.3287
      vertex -26.1508 -7.72899e-16 -3.48083
    endloop
  endfacet
  facet normal -0.207912 2.17192e-16 0.978148
    outer loop
      vertex 26.1508 -7.6 -3.48083
      vertex 26.8666 -7.6 -3.3287
      vertex 26.8666 -7.39119e-16 -3.3287
    endloop
  endfacet
  facet normal -0.207912 2.17192e-16 0.978148
    outer loop
      vertex 26.1508 -7.72899e-16 -3.48083
      vertex 26.1508 -7.6 -3.48083
      vertex 26.8666 -7.39119e-16 -3.3287
    endloop
  endfacet
  facet normal -0.406737 2.02848e-16 0.913546
    outer loop
      vertex 26.8666 -7.6 -3.3287
      vertex 27.535 -7.6 -3.03109
      vertex 27.535 -6.73037e-16 -3.03109
    endloop
  endfacet
  facet normal -0.406737 2.02848e-16 0.913546
    outer loop
      vertex 26.8666 -7.39119e-16 -3.3287
      vertex 26.8666 -7.6 -3.3287
      vertex 27.535 -6.73037e-16 -3.03109
    endloop
  endfacet
  facet normal -0.587785 1.79638e-16 0.809017
    outer loop
      vertex 27.535 -7.6 -3.03109
      vertex 28.127 -7.6 -2.60101
      vertex 28.127 -5.7754e-16 -2.60101
    endloop
  endfacet
  facet normal -0.587785 1.79638e-16 0.809017
    outer loop
      vertex 27.535 -6.73037e-16 -3.03109
      vertex 27.535 -7.6 -3.03109
      vertex 28.127 -5.7754e-16 -2.60101
    endloop
  endfacet
  facet normal -0.743145 1.48577e-16 0.66913
    outer loop
      vertex 28.6166 -7.6 -2.05725
      vertex 28.6166 -4.56801e-16 -2.05725
      vertex 28.127 -7.6 -2.60101
    endloop
  endfacet
  facet normal -0.743145 1.48577e-16 0.66913
    outer loop
      vertex 28.127 -7.6 -2.60101
      vertex 28.6166 -4.56801e-16 -2.05725
      vertex 28.127 -5.7754e-16 -2.60101
    endloop
  endfacet
  facet normal -0.866025 1.11022e-16 0.5
    outer loop
      vertex 28.9824 -7.6 -1.42358
      vertex 28.9824 -3.16098e-16 -1.42358
      vertex 28.6166 -7.6 -2.05725
    endloop
  endfacet
  facet normal -0.866025 1.11022e-16 0.5
    outer loop
      vertex 28.6166 -7.6 -2.05725
      vertex 28.9824 -3.16098e-16 -1.42358
      vertex 28.6166 -4.56801e-16 -2.05725
    endloop
  endfacet
  facet normal -0.951056 6.86157e-17 0.309018
    outer loop
      vertex 29.2085 -7.6 -0.727691
      vertex 29.2085 -1.6158e-16 -0.727691
      vertex 28.9824 -7.6 -1.42358
    endloop
  endfacet
  facet normal -0.951056 6.86157e-17 0.309018
    outer loop
      vertex 28.9824 -7.6 -1.42358
      vertex 29.2085 -1.6158e-16 -0.727691
      vertex 28.9824 -3.16098e-16 -1.42358
    endloop
  endfacet
  facet normal -0.994522 2.32099e-17 0.104528
    outer loop
      vertex 29.285 -7.6 1.68754e-15
      vertex 29.285 0 0
      vertex 29.2085 -7.6 -0.727691
    endloop
  endfacet
  facet normal -0.994522 2.32099e-17 0.104528
    outer loop
      vertex 29.2085 -7.6 -0.727691
      vertex 29.285 0 0
      vertex 29.2085 -1.6158e-16 -0.727691
    endloop
  endfacet
  facet normal 0.883988 0.0575541 0.463953
    outer loop
      vertex 18.3696 -30 3.4469
      vertex 18.3918 -30 3.40452
      vertex 17.5987 -7.6 2.1369
    endloop
  endfacet
  facet normal 0.883988 0.0575541 0.463953
    outer loop
      vertex 17.0782 -7.6 3.12861
      vertex 18.3696 -30 3.4469
      vertex 17.5987 -7.6 2.1369
    endloop
  endfacet
  facet normal 0.998342 0.0575541 -1.27796e-17
    outer loop
      vertex 17.0782 -7.6 4.57139
      vertex 18.3696 -30 4.2531
      vertex 18.3696 -30 3.4469
    endloop
  endfacet
  facet normal 0.998342 0.0575541 -1.27796e-17
    outer loop
      vertex 17.0782 -7.6 3.12861
      vertex 17.0782 -7.6 4.57139
      vertex 18.3696 -30 3.4469
    endloop
  endfacet
  facet normal 0.883988 0.0575541 -0.463953
    outer loop
      vertex 17.2282 -7.6 4.85719
      vertex 18.722 -30 4.92457
      vertex 18.3696 -30 4.2531
    endloop
  endfacet
  facet normal 0.883988 0.0575541 -0.463953
    outer loop
      vertex 17.0782 -7.6 4.57139
      vertex 17.2282 -7.6 4.85719
      vertex 18.3696 -30 4.2531
    endloop
  endfacet
  facet normal 0.883988 0.0575541 -0.463953
    outer loop
      vertex 17.7487 -7.6 5.8489
      vertex 18.7442 -30 4.96695
      vertex 18.722 -30 4.92457
    endloop
  endfacet
  facet normal 0.883988 0.0575541 -0.463953
    outer loop
      vertex 17.2282 -7.6 4.85719
      vertex 17.7487 -7.6 5.8489
      vertex 18.722 -30 4.92457
    endloop
  endfacet
  facet normal 0.567123 0.0575541 -0.82162
    outer loop
      vertex 19.3683 -30 5.39773
      vertex 18.7442 -30 4.96695
      vertex 18.0143 -7.6 6.03226
    endloop
  endfacet
  facet normal 0.567123 0.0575541 -0.82162
    outer loop
      vertex 18.0143 -7.6 6.03226
      vertex 18.7442 -30 4.96695
      vertex 17.7487 -7.6 5.8489
    endloop
  endfacet
  facet normal 0.567123 0.0575541 -0.82162
    outer loop
      vertex 19.4077 -30 5.42492
      vertex 19.3683 -30 5.39773
      vertex 18.9361 -7.6 6.66849
    endloop
  endfacet
  facet normal 0.567123 0.0575541 -0.82162
    outer loop
      vertex 18.9361 -7.6 6.66849
      vertex 19.3683 -30 5.39773
      vertex 18.0143 -7.6 6.03226
    endloop
  endfacet
  facet normal 0.120337 0.0575541 -0.991063
    outer loop
      vertex 20.1605 -30 5.51632
      vertex 19.4077 -30 5.42492
      vertex 19.2565 -7.6 6.7074
    endloop
  endfacet
  facet normal 0.120337 0.0575541 -0.991063
    outer loop
      vertex 19.2565 -7.6 6.7074
      vertex 19.4077 -30 5.42492
      vertex 18.9361 -7.6 6.66849
    endloop
  endfacet
  facet normal 0.120337 0.0575541 -0.991063
    outer loop
      vertex 20.208 -30 5.52209
      vertex 20.1605 -30 5.51632
      vertex 20.3683 -7.6 6.8424
    endloop
  endfacet
  facet normal 0.120337 0.0575541 -0.991063
    outer loop
      vertex 20.3683 -7.6 6.8424
      vertex 20.1605 -30 5.51632
      vertex 19.2565 -7.6 6.7074
    endloop
  endfacet
  facet normal -0.354017 0.0575541 -0.933466
    outer loop
      vertex 20.6701 -7.6 6.72794
      vertex 20.9171 -30 5.25319
      vertex 20.3683 -7.6 6.8424
    endloop
  endfacet
  facet normal -0.354017 0.0575541 -0.933466
    outer loop
      vertex 20.3683 -7.6 6.8424
      vertex 20.9171 -30 5.25319
      vertex 20.208 -30 5.52209
    endloop
  endfacet
  facet normal -0.354017 0.0575541 -0.933466
    outer loop
      vertex 20.9618 -30 5.23621
      vertex 20.9171 -30 5.25319
      vertex 21.7174 -7.6 6.33078
    endloop
  endfacet
  facet normal -0.354017 0.0575541 -0.933466
    outer loop
      vertex 21.7174 -7.6 6.33078
      vertex 20.9171 -30 5.25319
      vertex 20.6701 -7.6 6.72794
    endloop
  endfacet
  facet normal -0.74727 0.0575541 -0.662023
    outer loop
      vertex 21.9314 -7.6 6.08918
      vertex 21.4647 -30 4.66859
      vertex 21.7174 -7.6 6.33078
    endloop
  endfacet
  facet normal -0.74727 0.0575541 -0.662023
    outer loop
      vertex 21.7174 -7.6 6.33078
      vertex 21.4647 -30 4.66859
      vertex 20.9618 -30 5.23621
    endloop
  endfacet
  facet normal -0.74727 0.0575541 -0.662024
    outer loop
      vertex 22.6741 -7.6 5.25085
      vertex 21.4964 -30 4.63277
      vertex 21.9314 -7.6 6.08918
    endloop
  endfacet
  facet normal -0.74727 0.0575541 -0.662024
    outer loop
      vertex 21.9314 -7.6 6.08918
      vertex 21.4964 -30 4.63277
      vertex 21.4647 -30 4.66859
    endloop
  endfacet
  facet normal -0.969332 0.0575541 -0.238919
    outer loop
      vertex 22.7513 -7.6 4.93745
      vertex 21.6779 -30 3.89647
      vertex 22.6741 -7.6 5.25085
    endloop
  endfacet
  facet normal -0.969332 0.0575541 -0.238919
    outer loop
      vertex 22.6741 -7.6 5.25085
      vertex 21.6779 -30 3.89647
      vertex 21.4964 -30 4.63277
    endloop
  endfacet
  facet normal -0.969332 0.0575541 -0.238919
    outer loop
      vertex 23.0194 -7.6 3.85
      vertex 21.6894 -30 3.85
      vertex 22.7513 -7.6 4.93745
    endloop
  endfacet
  facet normal -0.969332 0.0575541 -0.238919
    outer loop
      vertex 22.7513 -7.6 4.93745
      vertex 21.6894 -30 3.85
      vertex 21.6779 -30 3.89647
    endloop
  endfacet
  facet normal -0.969332 0.0575541 0.238919
    outer loop
      vertex 23.0194 -7.6 3.85
      vertex 22.9421 -7.6 3.5366
      vertex 21.6894 -30 3.85
    endloop
  endfacet
  facet normal -0.969332 0.0575541 0.238919
    outer loop
      vertex 21.6894 -30 3.85
      vertex 22.9421 -7.6 3.5366
      vertex 21.5079 -30 3.1137
    endloop
  endfacet
  facet normal -0.969332 0.0575541 0.238919
    outer loop
      vertex 22.9421 -7.6 3.5366
      vertex 22.6741 -7.6 2.44915
      vertex 21.5079 -30 3.1137
    endloop
  endfacet
  facet normal -0.969332 0.0575541 0.238919
    outer loop
      vertex 21.5079 -30 3.1137
      vertex 22.6741 -7.6 2.44915
      vertex 21.4964 -30 3.06723
    endloop
  endfacet
  facet normal -0.74727 0.0575541 0.662023
    outer loop
      vertex 22.6741 -7.6 2.44915
      vertex 22.4601 -7.6 2.20755
      vertex 21.4964 -30 3.06723
    endloop
  endfacet
  facet normal -0.74727 0.0575541 0.662023
    outer loop
      vertex 21.4964 -30 3.06723
      vertex 22.4601 -7.6 2.20755
      vertex 20.9936 -30 2.49961
    endloop
  endfacet
  facet normal -0.74727 0.0575541 0.662024
    outer loop
      vertex 22.4601 -7.6 2.20755
      vertex 21.7174 -7.6 1.36922
      vertex 20.9936 -30 2.49961
    endloop
  endfacet
  facet normal -0.74727 0.0575541 0.662024
    outer loop
      vertex 20.9936 -30 2.49961
      vertex 21.7174 -7.6 1.36922
      vertex 20.9618 -30 2.46379
    endloop
  endfacet
  facet normal -0.354017 0.0575541 0.933466
    outer loop
      vertex 20.9618 -30 2.46379
      vertex 21.7174 -7.6 1.36922
      vertex 21.4156 -7.6 1.25476
    endloop
  endfacet
  facet normal -0.354017 0.0575541 0.933466
    outer loop
      vertex 20.2528 -30 2.19488
      vertex 20.9618 -30 2.46379
      vertex 21.4156 -7.6 1.25476
    endloop
  endfacet
  facet normal -0.354017 0.0575541 0.933466
    outer loop
      vertex 20.2528 -30 2.19488
      vertex 21.4156 -7.6 1.25476
      vertex 20.3683 -7.6 0.857603
    endloop
  endfacet
  facet normal -0.354017 0.0575541 0.933466
    outer loop
      vertex 20.208 -30 2.17791
      vertex 20.2528 -30 2.19488
      vertex 20.3683 -7.6 0.857603
    endloop
  endfacet
  facet normal 0.120337 0.0575541 0.991063
    outer loop
      vertex 20.208 -30 2.17791
      vertex 20.3683 -7.6 0.857603
      vertex 20.0479 -7.6 0.89651
    endloop
  endfacet
  facet normal 0.120337 0.0575541 0.991063
    outer loop
      vertex 19.4552 -30 2.26931
      vertex 20.208 -30 2.17791
      vertex 20.0479 -7.6 0.89651
    endloop
  endfacet
  facet normal 0.120337 0.0575541 0.991063
    outer loop
      vertex 19.4077 -30 2.27508
      vertex 19.4552 -30 2.26931
      vertex 20.0479 -7.6 0.89651
    endloop
  endfacet
  facet normal 0.120337 0.0575541 0.991063
    outer loop
      vertex 18.9361 -7.6 1.03151
      vertex 19.4077 -30 2.27508
      vertex 20.0479 -7.6 0.89651
    endloop
  endfacet
  facet normal 0.567123 0.0575541 0.82162
    outer loop
      vertex 18.7836 -30 2.70586
      vertex 19.4077 -30 2.27508
      vertex 18.9361 -7.6 1.03151
    endloop
  endfacet
  facet normal 0.567123 0.0575541 0.82162
    outer loop
      vertex 18.6704 -7.6 1.21487
      vertex 18.7836 -30 2.70586
      vertex 18.9361 -7.6 1.03151
    endloop
  endfacet
  facet normal 0.567123 0.0575541 0.82162
    outer loop
      vertex 18.7442 -30 2.73305
      vertex 18.7836 -30 2.70586
      vertex 18.6704 -7.6 1.21487
    endloop
  endfacet
  facet normal 0.567123 0.0575541 0.82162
    outer loop
      vertex 17.7487 -7.6 1.8511
      vertex 18.7442 -30 2.73305
      vertex 18.6704 -7.6 1.21487
    endloop
  endfacet
  facet normal 0.883988 0.0575541 0.463953
    outer loop
      vertex 18.3918 -30 3.40452
      vertex 18.7442 -30 2.73305
      vertex 17.7487 -7.6 1.8511
    endloop
  endfacet
  facet normal 0.883988 0.0575541 0.463953
    outer loop
      vertex 17.5987 -7.6 2.1369
      vertex 18.3918 -30 3.40452
      vertex 17.7487 -7.6 1.8511
    endloop
  endfacet
  facet normal 0 -1 2.22045e-16
    outer loop
      vertex 17.9264 -30 4.29181
      vertex 17.9264 -30 3.40819
      vertex 18.2858 -30 2.60096
    endloop
  endfacet
  facet normal 0 -1 2.22045e-16
    outer loop
      vertex 18.3696 -30 3.4469
      vertex 17.9264 -30 4.29181
      vertex 18.9425 -30 2.0097
    endloop
  endfacet
  facet normal 0 -1 2.22045e-16
    outer loop
      vertex 18.9425 -30 2.0097
      vertex 17.9264 -30 4.29181
      vertex 18.2858 -30 2.60096
    endloop
  endfacet
  facet normal 0 -1 2.22045e-16
    outer loop
      vertex 18.3696 -30 4.2531
      vertex 18.722 -30 4.92457
      vertex 17.9264 -30 4.29181
    endloop
  endfacet
  facet normal 0 -1 2.22045e-16
    outer loop
      vertex 19.4077 -30 5.42492
      vertex 20.1605 -30 5.51632
      vertex 20.6617 -30 5.871
    endloop
  endfacet
  facet normal 0 -1 2.22045e-16
    outer loop
      vertex 18.9425 -30 5.6903
      vertex 17.9264 -30 4.29181
      vertex 19.7829 -30 5.96336
    endloop
  endfacet
  facet normal 0 -1 2.22045e-16
    outer loop
      vertex 18.2858 -30 5.09904
      vertex 17.9264 -30 4.29181
      vertex 18.9425 -30 5.6903
    endloop
  endfacet
  facet normal 0 -1 2.22045e-16
    outer loop
      vertex 18.7442 -30 2.73305
      vertex 18.3696 -30 3.4469
      vertex 18.9425 -30 2.0097
    endloop
  endfacet
  facet normal 0 -1 2.22045e-16
    outer loop
      vertex 21.6894 -30 3.85
      vertex 21.5079 -30 3.1137
      vertex 21.9463 -30 2.98569
    endloop
  endfacet
  facet normal 0 -1 2.22045e-16
    outer loop
      vertex 18.7442 -30 4.96695
      vertex 17.9264 -30 4.29181
      vertex 18.722 -30 4.92457
    endloop
  endfacet
  facet normal 0 -1 2.22045e-16
    outer loop
      vertex 19.7829 -30 5.96336
      vertex 17.9264 -30 4.29181
      vertex 18.7442 -30 4.96695
    endloop
  endfacet
  facet normal 0 -1 2.22045e-16
    outer loop
      vertex 20.208 -30 5.52209
      vertex 20.9171 -30 5.25319
      vertex 21.4269 -30 5.42918
    endloop
  endfacet
  facet normal 0 -1 2.22045e-16
    outer loop
      vertex 19.7829 -30 5.96336
      vertex 19.4077 -30 5.42492
      vertex 20.6617 -30 5.871
    endloop
  endfacet
  facet normal 0 -1 2.22045e-16
    outer loop
      vertex 19.7829 -30 5.96336
      vertex 19.3683 -30 5.39773
      vertex 19.4077 -30 5.42492
    endloop
  endfacet
  facet normal 0 -1 2.22045e-16
    outer loop
      vertex 18.7442 -30 4.96695
      vertex 19.3683 -30 5.39773
      vertex 19.7829 -30 5.96336
    endloop
  endfacet
  facet normal 0 -1 2.22045e-16
    outer loop
      vertex 20.6617 -30 5.871
      vertex 20.208 -30 5.52209
      vertex 21.4269 -30 5.42918
    endloop
  endfacet
  facet normal 0 -1 2.22045e-16
    outer loop
      vertex 20.6617 -30 5.871
      vertex 20.1605 -30 5.51632
      vertex 20.208 -30 5.52209
    endloop
  endfacet
  facet normal 0 -1 2.22045e-16
    outer loop
      vertex 21.4647 -30 4.66859
      vertex 21.4964 -30 4.63277
      vertex 21.9463 -30 4.71432
    endloop
  endfacet
  facet normal 0 -1 2.22045e-16
    outer loop
      vertex 21.4269 -30 5.42918
      vertex 20.9618 -30 5.23621
      vertex 21.9463 -30 4.71432
    endloop
  endfacet
  facet normal 0 -1 2.22045e-16
    outer loop
      vertex 21.4269 -30 5.42918
      vertex 20.9171 -30 5.25319
      vertex 20.9618 -30 5.23621
    endloop
  endfacet
  facet normal 0 -1 2.22045e-16
    outer loop
      vertex 21.9463 -30 4.71432
      vertex 21.4964 -30 4.63277
      vertex 22.13 -30 3.85
    endloop
  endfacet
  facet normal 0 -1 2.22045e-16
    outer loop
      vertex 22.13 -30 3.85
      vertex 21.6779 -30 3.89647
      vertex 21.9463 -30 2.98569
    endloop
  endfacet
  facet normal 0 -1 2.22045e-16
    outer loop
      vertex 20.9618 -30 5.23621
      vertex 21.4647 -30 4.66859
      vertex 21.9463 -30 4.71432
    endloop
  endfacet
  facet normal 0 -1 2.22045e-16
    outer loop
      vertex 21.6779 -30 3.89647
      vertex 21.6894 -30 3.85
      vertex 21.9463 -30 2.98569
    endloop
  endfacet
  facet normal 0 -1 2.22045e-16
    outer loop
      vertex 21.9463 -30 2.98569
      vertex 21.5079 -30 3.1137
      vertex 21.4269 -30 2.27082
    endloop
  endfacet
  facet normal 0 -1 2.22045e-16
    outer loop
      vertex 21.4964 -30 4.63277
      vertex 21.6779 -30 3.89647
      vertex 22.13 -30 3.85
    endloop
  endfacet
  facet normal 0 -1 2.22045e-16
    outer loop
      vertex 21.5079 -30 3.1137
      vertex 21.4964 -30 3.06723
      vertex 21.4269 -30 2.27082
    endloop
  endfacet
  facet normal 0 -1 2.22045e-16
    outer loop
      vertex 21.4269 -30 2.27082
      vertex 20.9936 -30 2.49961
      vertex 20.6617 -30 1.82901
    endloop
  endfacet
  facet normal 0 -1 2.22045e-16
    outer loop
      vertex 20.9936 -30 2.49961
      vertex 20.9618 -30 2.46379
      vertex 20.6617 -30 1.82901
    endloop
  endfacet
  facet normal 0 -1 2.22045e-16
    outer loop
      vertex 20.6617 -30 1.82901
      vertex 20.2528 -30 2.19488
      vertex 19.7829 -30 1.73664
    endloop
  endfacet
  facet normal 0 -1 2.22045e-16
    outer loop
      vertex 20.2528 -30 2.19488
      vertex 20.208 -30 2.17791
      vertex 19.7829 -30 1.73664
    endloop
  endfacet
  facet normal 0 -1 2.22045e-16
    outer loop
      vertex 20.208 -30 2.17791
      vertex 19.4552 -30 2.26931
      vertex 19.7829 -30 1.73664
    endloop
  endfacet
  facet normal 0 -1 2.22045e-16
    outer loop
      vertex 19.4552 -30 2.26931
      vertex 19.4077 -30 2.27508
      vertex 19.7829 -30 1.73664
    endloop
  endfacet
  facet normal 0 -1 2.22045e-16
    outer loop
      vertex 19.7829 -30 1.73664
      vertex 18.7836 -30 2.70586
      vertex 18.9425 -30 2.0097
    endloop
  endfacet
  facet normal 0 -1 2.22045e-16
    outer loop
      vertex 18.7836 -30 2.70586
      vertex 18.7442 -30 2.73305
      vertex 18.9425 -30 2.0097
    endloop
  endfacet
  facet normal 0 -1 2.22045e-16
    outer loop
      vertex 18.3918 -30 3.40452
      vertex 18.3696 -30 3.4469
      vertex 18.7442 -30 2.73305
    endloop
  endfacet
  facet normal 0 -1 2.22045e-16
    outer loop
      vertex 21.4964 -30 3.06723
      vertex 20.9936 -30 2.49961
      vertex 21.4269 -30 2.27082
    endloop
  endfacet
  facet normal 0 -1 2.22045e-16
    outer loop
      vertex 20.9618 -30 2.46379
      vertex 20.2528 -30 2.19488
      vertex 20.6617 -30 1.82901
    endloop
  endfacet
  facet normal 0 -1 2.22045e-16
    outer loop
      vertex 19.4077 -30 2.27508
      vertex 18.7836 -30 2.70586
      vertex 19.7829 -30 1.73664
    endloop
  endfacet
  facet normal 0 -1 2.22045e-16
    outer loop
      vertex 18.3696 -30 3.4469
      vertex 18.3696 -30 4.2531
      vertex 17.9264 -30 4.29181
    endloop
  endfacet
endsolid OpenSCAD_Model
